<?xml version="1.0" encoding="utf-8"?>
<!-- Generator: Adobe Illustrator 16.0.0, SVG Export Plug-In . SVG Version: 6.00 Build 0)  -->
<!DOCTYPE svg PUBLIC "-//W3C//DTD SVG 1.1//EN" "http://www.w3.org/Graphics/SVG/1.1/DTD/svg11.dtd">
<svg version="1.1" id="Layer_1" xmlns="http://www.w3.org/2000/svg" xmlns:xlink="http://www.w3.org/1999/xlink" x="0px" y="0px"
	 width="215.053px" height="67.552px" viewBox="0 0 215.053 67.552" enable-background="new 0 0 215.053 67.552"
	 xml:space="preserve">
<g id="yURqRJ_1_">
	<g>
		<g>
			<path fill="#FDFDFD" d="M107.755,67.504c-35.085,0-70.17-0.017-105.255,0.048c-1.712,0.003-2.056-0.335-2.049-2.049
				C0.526,44.419,0.52,23.334,0.458,2.25c-0.004-1.492,0.3-1.792,1.792-1.791c70.337,0.047,140.673,0.047,211.011,0
				c1.49-0.001,1.796,0.299,1.792,1.791c-0.062,21.167-0.062,42.336,0,63.503c0.004,1.491-0.301,1.794-1.792,1.792
				C178.092,67.491,142.924,67.504,107.755,67.504z M188.009,48.504c-0.831-0.019-1.662-0.037-2.493-0.057
				c-3.368-2.624-7.184-3.508-11.436-3.436c-8.982,0.151-17.983,0.353-26.948-0.072c-4.811-0.229-9.537,0.444-14.438-0.021
				c-10.059-0.955-20.271-0.333-30.421-0.249c-3.666,0.03-5.072,2.097-4.296,5.836c-0.026,0.481-0.052,0.963-0.079,1.444
				c-1.221,1.373-1.063,2.736,0.031,4.092c0.015,0.322,0.03,0.644,0.045,0.965c-0.485,1.392-0.672,2.706,0.919,3.561
				c0.1,0.255,0.2,0.509,0.3,0.764c0.042,0.837,0.237,1.498,1.315,1.142c11.166,0.017,22.333,0.034,33.499,0.052
				c1.779-0.512,3.568-0.055,5.353-0.056c12.468-0.007,24.937-0.031,37.404,0.016c3.102,0.012,5.556-1.298,7.791-3.246
				c1.648-0.041,3.297-0.081,4.945-0.121c0.498,1.304,1.698,1.736,2.811,2.297c1.662,0.838,3.55,0.816,5.26,1.383
				c7.75,2.566,14.422-2.03,14.397-10.013c-0.014-4.369-3.534-7.886-7.909-8.27C198.213,44.002,192.837,45.071,188.009,48.504z
				 M189.003,19.581c4.021,3.592,8.848,4.183,13.975,3.883c7.443-0.436,10.761-6.38,8.451-13.167
				c-1.503-4.417-5.614-5.226-9.468-5.661c-4.988-0.562-9.417,1.413-13.462,4.244c-1.327,0.007-2.654,0.013-3.982,0.02
				c-1.594-2.513-4.135-3.318-6.839-3.336c-12.746-0.083-25.495,0.005-38.241-0.078c-2.459-0.016-3.489,1.2-3.859,3.324
				c-0.646,3.718-0.566,7.442,0.007,11.168c0.378,2.463,1.688,3.518,4.246,3.501c11.914-0.074,23.83,0.073,35.742-0.101
				c3.304-0.048,6.565-0.995,8.95-3.674C186.016,19.664,187.509,19.622,189.003,19.581z M134.016,5.463
				C122.507,5.442,111,5.42,99.491,5.399c-1.711-0.029-1.66,1.154-1.609,2.337c-0.175,0.397-0.35,0.795-0.525,1.193
				c-1.559,3.434-1.066,7.029-0.381,10.469c0.779,3.91,1.808,4.443,5.968,4.452c7.982,0.017,15.963,0.036,23.945-0.015
				c2.071-0.013,4.146-0.231,6.208-0.453c1.148-0.124,2.356-0.402,1.131-1.973c-0.173-0.9-0.347-1.8-0.52-2.7
				c0.281-1.01,0.388-1.991-0.483-2.802c-0.255-1.105-0.198-2.213-0.026-3.321c0.904-0.736,0.815-1.63,0.411-2.575
				c0.093-0.629,0.185-1.258,0.276-1.887C135.143,6.269,135.15,6.128,134.016,5.463z M71.769,5.525
				c-6.909,0-13.818,0.025-20.727-0.017c-1.857-0.011-3.443,0.372-5.156,1.291c-4.064,2.18-4.107,6.224-3.708,10.256
				c0.232,2.341,5.095,6.342,7.696,6.352c14.983,0.058,29.966,0.028,44.95,0.044c1.284,0.001,1.875-0.249,1.25-1.725
				c-1.845-4.353-1.789-8.986-0.664-13.359c0.766-2.974-0.417-2.858-2.415-2.852C85.92,5.541,78.844,5.526,71.769,5.525z
				 M33.491,45.853c-7.076,0-14.153,0.018-21.229-0.013c-1.737-0.008-3.269,0.365-4.592,1.566c-2.617,2.375-3.574,6.022-2.382,9.352
				c1.106,3.092,4.152,5.277,7.74,5.321c5.91,0.073,11.821,0.027,17.732,0.028c8.409,0.001,16.817-0.029,25.225,0.02
				c1.907,0.011,2.62-0.545,1.931-2.503c-1.262-3.583-0.913-7.258-0.165-10.857c0.489-2.353-0.364-2.955-2.532-2.936
				C47.977,45.896,40.734,45.855,33.491,45.853z M78.495,45.353c-5.081,0-10.162,0.028-15.242-0.017
				c-1.582-0.015-2.76,0.356-3.251,2.043c-1.294,4.444-1.29,8.851,0.146,13.27c0.426,1.311,1.183,1.866,2.552,1.863
				c10.329-0.023,20.657-0.019,30.985-0.006c1.716,0.002,2.1-0.617,1.629-2.332c-1.12-4.079-1.076-8.279-0.132-12.358
				c0.483-2.09-0.077-2.502-1.944-2.481C88.324,45.389,83.41,45.353,78.495,45.353z"/>
			<path fill-rule="evenodd" clip-rule="evenodd" fill="#B8B8B8" d="M71.769,5.525c7.075,0,14.151,0.015,21.226-0.009
				c1.998-0.007,3.18-0.123,2.415,2.852c-1.125,4.373-1.181,9.006,0.664,13.359c0.625,1.476,0.034,1.726-1.25,1.725
				c-14.983-0.016-29.967,0.014-44.95-0.044c-2.601-0.01-7.464-4.011-7.696-6.352c-0.399-4.032-0.356-8.077,3.708-10.256
				c1.712-0.918,3.299-1.302,5.156-1.291C57.951,5.55,64.86,5.525,71.769,5.525z"/>
			<path fill-rule="evenodd" clip-rule="evenodd" fill="#B8B8B8" d="M184.555,59.237c-2.235,1.948-4.689,3.258-7.791,3.246
				c-12.468-0.047-24.937-0.022-37.404-0.016c-1.784,0.001-3.573-0.456-5.353,0.056c-0.066-0.652-0.067-1.319-0.209-1.954
				c-0.913-4.101-1.456-8.218-0.242-12.341c0.642-2.18-0.139-2.74-2.271-2.721c-9.326,0.084-18.653,0.033-27.98,0.038
				c-3.825,0.002-3.971,0.127-4.918,3.792c-0.103,0.398-0.271,0.779-0.41,1.167c-0.776-3.739,0.63-5.806,4.296-5.836
				c10.149-0.084,20.362-0.706,30.421,0.249c4.9,0.466,9.627-0.207,14.438,0.021c8.965,0.425,17.966,0.224,26.948,0.072
				c4.252-0.072,8.067,0.812,11.436,3.436C180.06,51.241,179.687,55.43,184.555,59.237z"/>
			<path fill-rule="evenodd" clip-rule="evenodd" fill="#B8B8B8" d="M184.523,19.706c-2.385,2.679-5.646,3.626-8.95,3.674
				c-11.912,0.173-23.828,0.027-35.742,0.101c-2.558,0.016-3.868-1.038-4.246-3.501c-0.573-3.727-0.653-7.45-0.007-11.168
				c0.37-2.124,1.4-3.34,3.859-3.324c12.746,0.083,25.495-0.004,38.241,0.078c2.704,0.018,5.245,0.823,6.839,3.336
				C180.022,13.231,180.023,15.599,184.523,19.706z"/>
			<path fill-rule="evenodd" clip-rule="evenodd" fill="#B8B8B8" d="M33.491,45.854c7.243,0.002,14.486,0.042,21.728-0.022
				c2.167-0.02,3.021,0.583,2.532,2.936c-0.748,3.6-1.097,7.274,0.165,10.857c0.689,1.958-0.024,2.514-1.931,2.503
				c-8.408-0.049-16.816-0.019-25.225-0.02c-5.911-0.001-11.822,0.045-17.732-0.028c-3.588-0.044-6.634-2.229-7.74-5.321
				c-1.191-3.329-0.235-6.977,2.382-9.352c1.323-1.201,2.855-1.574,4.592-1.566C19.338,45.87,26.415,45.853,33.491,45.854z"/>
			<path fill-rule="evenodd" clip-rule="evenodd" fill="#515151" d="M133.708,18.71c0.173,0.9,0.347,1.8,0.52,2.7
				c-0.592,1.247-1.739,1.084-2.806,1.089c-9.542,0.05-19.083,0.1-28.625,0.135c-4.212,0.015-5.192-0.906-5.365-5.248
				c-0.112-2.815-0.055-5.638-0.074-8.458c0.175-0.397,0.35-0.795,0.524-1.193c0.536-0.779,1.073-1.559,1.61-2.337
				C111,5.42,122.507,5.442,134.016,5.463c-0.044,0.887-0.087,1.774-0.131,2.662c-0.092,0.629-0.184,1.258-0.276,1.887
				c-0.68,0.771-0.646,1.657-0.411,2.575c-0.172,1.108-0.229,2.216,0.026,3.321C132.943,16.918,133,17.871,133.708,18.71z"/>
			<path fill-rule="evenodd" clip-rule="evenodd" fill="#515151" d="M78.495,45.353c4.915,0,9.829,0.036,14.743-0.019
				c1.867-0.021,2.427,0.392,1.944,2.481c-0.943,4.079-0.987,8.279,0.132,12.358c0.471,1.715,0.087,2.334-1.629,2.332
				c-10.329-0.013-20.657-0.018-30.985,0.006c-1.369,0.003-2.125-0.553-2.552-1.863c-1.437-4.419-1.44-8.825-0.146-13.27
				c0.491-1.687,1.669-2.058,3.251-2.043C68.333,45.381,73.415,45.353,78.495,45.353z"/>
			<path fill-rule="evenodd" clip-rule="evenodd" fill="#515151" d="M97.978,50.505c0.138-0.388,0.307-0.769,0.41-1.167
				c0.947-3.665,1.093-3.79,4.918-3.792c9.327-0.005,18.654,0.046,27.98-0.038c2.132-0.02,2.912,0.541,2.271,2.721
				c-1.214,4.123-0.671,8.24,0.242,12.341c0.142,0.635,0.143,1.302,0.209,1.954c-11.166-0.018-22.333-0.035-33.499-0.052
				c-0.438-0.381-0.876-0.761-1.315-1.142c-0.1-0.255-0.2-0.509-0.3-0.764c-0.306-1.187-0.612-2.373-0.919-3.561
				c-0.015-0.321-0.03-0.643-0.045-0.965c0.296-1.366,0.11-2.729-0.031-4.092C97.925,51.468,97.952,50.986,97.978,50.505z"/>
			<path fill-rule="evenodd" clip-rule="evenodd" fill="#B8B8B8" d="M188.5,8.88c4.045-2.831,8.474-4.807,13.462-4.244
				c3.854,0.435,7.965,1.244,9.468,5.661c2.31,6.787-1.008,12.73-8.451,13.167c-5.127,0.3-9.954-0.292-13.975-3.883
				C193.531,15.569,193.383,12.442,188.5,8.88z"/>
			<path fill-rule="evenodd" clip-rule="evenodd" fill="#B8B8B8" d="M188.009,48.504c4.828-3.433,10.204-4.502,16.05-3.99
				c4.375,0.384,7.896,3.9,7.909,8.27c0.024,7.982-6.647,12.579-14.397,10.013c-1.71-0.566-3.598-0.545-5.26-1.383
				c-1.112-0.561-2.312-0.993-2.811-2.297C193.561,54.258,193.108,51.034,188.009,48.504z"/>
			<path fill-rule="evenodd" clip-rule="evenodd" fill="#515151" d="M188.5,8.88c4.884,3.562,5.031,6.688,0.504,10.7
				c-1.494,0.042-2.987,0.083-4.48,0.125c-4.5-4.106-4.501-6.474-0.006-10.805C185.845,8.894,187.172,8.887,188.5,8.88z"/>
			<path fill-rule="evenodd" clip-rule="evenodd" fill="#515151" d="M188.009,48.504c5.099,2.53,5.552,5.754,1.491,10.612
				c-1.648,0.04-3.297,0.08-4.945,0.121c-4.868-3.808-4.495-7.996,0.961-10.79C186.347,48.467,187.178,48.485,188.009,48.504z"/>
			<path fill-rule="evenodd" clip-rule="evenodd" fill="#B8B8B8" d="M97.356,8.929c0.019,2.819-0.038,5.642,0.074,8.458
				c0.173,4.341,1.153,5.263,5.365,5.248c9.542-0.035,19.083-0.085,28.625-0.135c1.066-0.005,2.214,0.158,2.806-1.089
				c1.226,1.571,0.018,1.85-1.131,1.973c-2.062,0.222-4.137,0.439-6.208,0.453c-7.981,0.051-15.963,0.032-23.945,0.015
				c-4.16-0.009-5.189-0.542-5.968-4.452C96.291,15.958,95.798,12.363,97.356,8.929z"/>
			<path fill-rule="evenodd" clip-rule="evenodd" fill="#B8B8B8" d="M97.899,51.949c0.141,1.363,0.327,2.726,0.031,4.092
				C96.835,54.686,96.678,53.322,97.899,51.949z"/>
			<path fill-rule="evenodd" clip-rule="evenodd" fill="#B8B8B8" d="M97.975,57.006c0.307,1.188,0.613,2.374,0.919,3.561
				C97.303,59.712,97.489,58.397,97.975,57.006z"/>
			<path fill-rule="evenodd" clip-rule="evenodd" fill="#B8B8B8" d="M133.885,8.125c0.044-0.887,0.087-1.774,0.131-2.662
				C135.15,6.128,135.143,6.269,133.885,8.125z"/>
			<path fill-rule="evenodd" clip-rule="evenodd" fill="#B8B8B8" d="M99.491,5.399c-0.537,0.779-1.074,1.558-1.61,2.337
				C97.831,6.553,97.779,5.37,99.491,5.399z"/>
			<path fill-rule="evenodd" clip-rule="evenodd" fill="#B8B8B8" d="M133.708,18.71c-0.708-0.839-0.765-1.792-0.483-2.802
				C134.095,16.719,133.989,17.7,133.708,18.71z"/>
			<path fill-rule="evenodd" clip-rule="evenodd" fill="#B8B8B8" d="M133.198,12.587c-0.235-0.918-0.269-1.803,0.411-2.575
				C134.013,10.957,134.102,11.851,133.198,12.587z"/>
			<path fill-rule="evenodd" clip-rule="evenodd" fill="#B8B8B8" d="M99.193,61.33c0.438,0.381,0.876,0.761,1.315,1.142
				C99.43,62.828,99.235,62.167,99.193,61.33z"/>
		</g>
	</g>
</g>
</svg>
