<?xml version="1.0" encoding="utf-8"?>
<!-- Generator: Adobe Illustrator 16.0.0, SVG Export Plug-In . SVG Version: 6.00 Build 0)  -->
<!DOCTYPE svg PUBLIC "-//W3C//DTD SVG 1.1//EN" "http://www.w3.org/Graphics/SVG/1.1/DTD/svg11.dtd">
<svg version="1.1" id="Layer_1" xmlns="http://www.w3.org/2000/svg" xmlns:xlink="http://www.w3.org/1999/xlink" x="0px" y="0px"
	 width="185.083px" height="242.625px" viewBox="0 -20.375 185.083 242.625" enable-background="new 0 -20.375 185.083 242.625"
	 xml:space="preserve">
<g>
	<path d="M51.587,139.23c0.087-0.549,0.087-1.047,0.087-1.565c-0.901-0.951-1.547,1.42-2.462,0.254
		c-0.954-1.332,0.974-1.838,0.689-2.964c-0.32-0.535-0.629-1.055-0.936-1.566c0.751-2.146,1.488-4.248,2.151-6.14
		c1.79-0.347,1.161,1.353,1.879,1.883c0.388-0.405,0.792-0.828,1.194-1.248c-0.89-2.112-1.731-4.067-3.983-5.013
		c-1.191-0.499-2.212-2.001-2.554-3.674c-0.447,0.367-0.686,1.117-1.433,0.976c-1.243,0.087-0.444-1.356-1.028-1.774
		c-0.709-0.651-1.792,0.318-2.423-0.711c0-0.318,0-0.647,0-1.326c1.486-0.043,2.888-0.514,4.511,0.257
		c1.014,0.479,2.449-0.772,3.505,0.56c0.933,1.088,1.865,2.176,2.703,3.153c1.54-0.767,0.26-2.419,1.305-3.138
		c0.269,0,0.562,0,0.87,0c1.506,1.619-0.336,2.86-0.438,4.354c1.326,0.768,2.509,1.938,4.164,1.757
		c0.492,1.109,0.556,2.8,1.977,2.822c1.887,0.032,0.169,2.842,2.798,2.243c-2.211,2.438-2.259,4.324-0.679,5.99
		c-0.495,0.602-0.792,0.961-1.062,1.289c0.862,1.065,1.003,2.914,2.61,2.959c0.176,1.684-1.106,2.031-1.651,2.961
		c0.133,0.91,0.85,0.484,1.625,0.854c-0.405,2.476,0.754,4.636,1.906,6.925c-0.223,0.356-0.463,0.739-0.751,1.2
		c0.556,1.726,1.145,3.548,1.723,5.341c0.557,0.225,1.072,0.432,1.492,0.601c0.825,1.491-1.363,1.856-0.36,4.041
		c-0.071-0.16,0.638-0.476,1.422,0.014c-0.579,2.237,0.707,4.521,0.363,7.452c1.121,0.709,1.285,2.717,2.186,3.725
		c0.258,1.301-0.627,1.411-0.81,2.545c0.589,1.867,2.408,3.834,1.784,6.275c0.44,0.885,0.947,0.549,1.406,0.708
		c1.08,4.733,1.862,9.637,3.716,14.183c-0.535,2.653,2.007,4.225,1.948,6.553c-0.065,2.558,1.936,4.102,2.036,6.656
		c0.045,1.148,1.335,2.526,1.858,4.063c0.427,1.259,1.299,2.788,2.333,3.907c1.067,1.156,2.103,2.351,3.181,3.559
		c0.558,0,1.144,0,1.948,0c6.806-7.396,9.126-17.452,12.592-28.154c-0.15,0.125,0.561-0.461,1.229-1.011
		c-0.554-0.905-1.359-1.321-0.959-2.467c0.438-0.17,0.955-0.371,1.627-0.632c0.051-1.051,0.104-2.17,0.16-3.389
		c0.486-0.194,1.002-0.401,1.519-0.608c0.717-1.165-0.374-1.693-0.759-2.287c0.973-3.353,2.033-6.464,1.843-9.886
		c0.935-0.598,2.084-0.883,2.608-2.121c-0.369-0.473-0.957-0.809-0.815-1.633c0.017-1.293,1.271-0.408,1.752-1.352
		c0.604-0.979-0.797-1.389-0.912-2.574c-0.086-0.527,0.536-0.837,0.905-1.345c-0.282-0.346-0.568-0.696-0.93-1.139
		c0.371-2.386,2.856-4.134,1.656-6.931c0.805-0.349,1.316-0.568,1.973-0.854c-0.521-2.136,1.258-4.158-0.029-6.142
		c1.508-1.309,2.136,1.395,3.419,0.258c-0.28-1.217-1.58-2.584,0.11-3.872c1.651,0.87,1.215,3.123,2.418,4.153
		c1.91,0.146,0.994-1.5,1.217-2.348c0.193-1.179,1.968-0.033,1.789-1.656c0.543,0.123,1.178-0.304,1.811,0.563
		c-0.447,1.674,0.456,3.337,0.943,4.973c-0.93,0.944-2.01-0.075-2.648,0.845c0.362,1.043-0.898,1.438-0.756,2.463
		c0.71,0.539,1.758-0.34,2.338,0.526c0.098,0.544,0.18,0.994,0.266,1.472c1.203,0.16,2.318,0.469,3.389-0.25
		c-0.504-1.015-1.688-1.381-1.796-2.674c0.446-1.053,0.913-2.052,2.179-1.918c1.152,0.657-0.068,2.26,0.993,3.014
		c0.278-0.686,0.556-1.36,0.821-2.012c0.498,0,0.938,0,1.379,0c0,0.832,0,1.662,0,2.494c-0.756,0.864-2.221,0.641-2.573,2.109
		c0.285,0.561,0.772,0.342,1.233,0.417c0.369,1.548,1.936,2.753,1.142,4.703c-1.617,1.044-1.463-0.632-1.886-1.627
		c-0.844,1.229-2.248,0.743-3.25,1.133c0,0.653,0,0.981,0,1.313c0.914,0.907,1.559-1.479,2.709,0.065
		c-1.475,2.408-0.789,5.276-0.971,8.006c0.948,0.57,0.965-0.635,1.961-0.546c0.762,0.232,1.641,0.877,1.666,2.409
		c-0.972,1.125-1.58,0.334-2.199-0.407c-0.932,0.887-1.863,1.803-2.691-0.195c-1.012,1.643-0.646,2.905,0.689,3.865
		c-1.174,1.319-1.105,2.812-1.403,4.068c-0.951,0.512-1.45-0.081-1.903-0.737c-0.726,0.341-0.578,0.948-0.464,1.498
		c0.313,0.608,0.802,0.386,1.247,0.44c1.172,1.054-0.264,2.904,0.908,3.979c0.884-0.721,0.104-1.909,0.39-2.405
		c0.606-0.738,1.037-0.569,1.456-0.498c1.355,1.693-0.641,2.892-0.564,4.325c1.269,1.933,2.197-1.454,3.391-0.155
		c0.764,1.35-0.689,3.646-3.273,5.17c0.338,0.841,1.92,1.593,0.09,2.613c-1.846,0.112-0.771-2.783-2.353-2.974
		c-0.604,0.741-1.342,1.129-2.249,0.937c-0.027-0.604-0.07-1.205-0.113-1.824c-1.244-0.182-2.322-0.394-3.719,0.252
		c1.506,0.505,2.342,1.896,3.832,1.572c-0.018,0.5-0.018,0.996-0.018,1.553c-0.579,0.3-1.18,0.609-1.803,0.932
		c0.471,0.527,0.887,0.995,1.303,1.461c0.982-0.521,1.316-2.23,3.101-1.822c-0.243,3.041-2.306,4.492-4.302,6.168
		c0.71,1.795,2.247,2.496,3.425,3.162c0.136,0.928-0.067,1.305-0.487,1.555c-1.138,0.646-1.434-1.944-2.705-0.788
		c-1.418,1.267,0.815,1.741,0.576,2.81c0.135,0.796-0.677,0.948-0.824,1.555c0.725,0.806,1.512,1.619,0.17,2.502
		c-0.441-0.178-0.771-0.201-0.941-0.397c-0.428-0.493,0.125-1.784-1.066-1.593c-0.125-1.026,0.258-2.034-0.358-3.002
		c-0.937,0-1.927,0-2.906,0c-0.349,1.639-2.001,2.902-0.851,4.822c1.012-1.123,0.923-3.05,2.052-3.881
		c1.677-0.221,0.758,1.65,2.063,2.061c0.323,1.525-1.041,2.447-1.24,3.826c-1.61,0.188-3.185,0.336-4.735-1.717
		c-0.213,2.434-0.771,4-1.382,5.545c-1.503,1.407-2.532-1.158-4.158-0.59c-0.369,1.657,0.609,4.122-1.646,4.815
		c-0.644,0.17-0.918-0.248-1.326-0.699c-0.809-0.485-1.041,1.015-2.082,0.839c-2.697-0.455-5.229,0.791-7.811,1.616
		c-1.643,0.524-3.496,0.271-5.255,0.269c-3.022-0.004-6.066,0.291-8.997-0.97c-1.729-0.743-3.501-1.354-5.426-1.067
		c-0.287,0.043-0.654-0.59-0.993-0.922c-0.849,0.291,0.073,2.191-1.826,1.907c-0.832-1.823-0.615-4.76-2.904-5.937
		c-1.594-0.53-0.566,2.738-2.421,1.949c-0.761-1.055-0.348-2.347-0.321-3.568c0.653-0.986,1.791,0.212,2.553-0.881
		c-0.836-1.127-2.626,0.263-3.149-1.438c-0.664,0.61-0.14,2.707-1.891,1.763c-1.435-1.441,1.461-2.056,0.509-3.44
		c-0.263-0.485-0.73-0.368-1.183-0.386c-0.514,1.064-0.821,2.318-1.873,2.925c-1.924-2.422-0.734-5.858-2.367-8.49
		c0.678-0.265,1.196-0.466,1.715-0.668c0.436-0.753,0.191-1.562,0.159-2.354c-0.472-0.717-0.723-0.021-0.933,0.248
		c-0.499,0.639-1.119,0.205-1.666,0.34c0.101-2.543-1.304-3.909-3.204-4.883c-0.446,0.365-0.825,1.25-1.715,0.855
		c-0.438-0.323-0.453-0.809-0.431-1.311c0.897-1.375,2.935-0.838,3.625-2.701c0.444-1.272,3.034-0.006,2.562-2.539
		c-0.8-0.688-1.591-0.492-2.504-0.146c0,0.877,0,1.799-0.059,2.686c-0.606-0.098-1.611,0.382-1.644-0.317
		c-0.108-2.337-2.135-1.614-2.955-2.636c-1.301-0.051-0.434,1.421-1.271,1.918c-0.216,0.141-0.618,0.162-1.144-0.201
		c-0.544-0.585,0.073-1.479-0.219-2.111c0.622-1.339,1.861-1.519,2.684-2.213c0.437-1.248-1.236-1.51-0.865-2.518
		c0.055-1.473,1.379-0.417,1.685-1.271c-0.179-0.72-1.141-1.056-0.758-2.117c1.129-1.018,2.222-0.805,3.116,0.559
		c0.567-0.855,0.642-1.723,0.044-1.9c-1.338-0.4-2.419-1.65-3.999-1.108c0-0.808,0-1.259,0-1.64c0.7-1.002,1.834,0.193,2.605-0.964
		c-1.012-0.829-2.186-0.209-3.229-0.521c-0.762-0.993-0.17-2.203-0.407-3.562c-0.208-1.008-3.025,0.441-1.743-2.016
		c-1.712-1.077-2.831,0.709-4.522,0.729c0.298-2.765,2.999-2.574,3.479-4.549c0.373-1.443-0.332-3.236,1.075-4.271
		c-0.094-1.291-1.326-1.977-0.91-3.264c0.545-0.125,1.182,0.308,1.641-0.33c0.254-0.543-0.018-1.326,0.678-1.681
		c0.637-0.163,1.42,0.362,1.822-0.114c-0.368-0.656-0.733-1.309-0.964-1.721c-1.279-0.597-1.693,1.572-2.925,0.646
		c-0.524-0.477-0.141-1.19-0.246-1.806c2.519-1.333,5.256-1.325,7.808-1.964c0.32,0.893-0.041,1.684,1.125,1.922
		c-0.187-1.302,0.286-2.521-0.417-4.107c-1.892,1.289-4.233,0.798-6.019,2.31c-1.576-1.839-3.333-0.879-4.755-1.167
		c-1.261,1.617-3.148,2.613-1.755,5.096c0.761-2.033,2.248-2.961,3.415-4.187c0.875,0.771,0.464,1.492,0.598,2.099
		c-1.589,0.641-1.096,1.935-0.493,2.857c0.477,0.732,0.465,1.395,0.487,2.146c-0.445,0-0.89,0-1.334,0
		c-0.776,0.392-0.096,1.666-0.966,2c-1.316,0.32-1.65-1.912-2.884-1.1c-0.419-1.342,0.183-1.861,0.753-2.396
		c-0.921-0.992-2.011-0.297-3.172-0.556c-0.467,1.865-1.658,3.119-2.802,4.14c-1.802-0.345-0.924-1.646-1.189-2.437
		c1.22-2.129,3.164-3.06,5.268-3.978c0.048-1.062,0.099-2.182,0.146-3.197c0.336-0.65,0.822-0.432,1.392-0.499
		c0.388-1.052,0.935-2.146,1.184-3.321c0.226-1.064-0.253-2.348,0.897-3.109c-0.729-1.164-2.381,0.137-2.941-1.404
		c-0.734,0.164-1.195,1.533-2.193,0.564c-0.385-0.724-0.16-1.523-0.104-2.302c1.535-1.575,2.579,0.838,4.339,0.528
		c-0.36-1.54-2.244-2.092-1.97-3.848c-0.528,0.338-0.974,0.623-1.505,0.961c-0.988-0.531-2.065-1.008-1.686-3.054
		c1.413,0,2.861,0,4.309,0c-0.316,2.313,1.542,2.835,2.152,3.843C49.436,140.652,50.29,138.708,51.587,139.23
		c0.323,1.347,2.199,1.734,2.053,2.42c-0.521,1.972-1.685,1.069-1.941,2.375c1.365,0.472,3.035-0.41,4.504,1.147
		c-0.828-1.503,0.566-1.741,0.701-2.63C54.886,141.954,54.281,138.609,51.587,139.23z M119.954,158.602
		c0.75,1.939,2.519,1.875,2.478,4.181c1.151-2.943,2.265-4.869,4.122-6.388C123.924,155.514,122.454,158.158,119.954,158.602z
		 M57.203,167.505c-0.937-0.349-1.735-0.479-2.58-0.128c-0.211,0.574-0.283,1.363-0.661,1.652c-0.509,0.391-1.508,0.024-1.354,1.781
		c0.351,0.656,1.784,0.237,2.371,1.905c0.087-2.567,2.17-0.813,2.995-2.168c-0.793-0.312-1.309-0.513-1.741-0.683
		C55.844,168.736,56.508,168.25,57.203,167.505z M58.77,155.63c-1.033,1.715-2.486,1.418-3.161,2.597
		c-0.203,0.354-0.394,0.488,0.589,1.366c-0.161-0.442,0.052,0.144,0.397,1.097c0.404-1.937,1.874-1.019,2.174-2.002
		C58.77,157.904,58.77,157.25,58.77,155.63z M121.811,202.49c0.629-2.311-0.391-2.993-1.809-3.393
		c-0.617,0.557-0.678,1.118-0.414,1.756C120.271,201.327,121.241,201.239,121.811,202.49z M119.69,172.359
		c-0.043,1.231-0.582,2.447,0.007,3.635c0.614,0.343,1.117,0.267,1.546-0.322C119.659,175.104,120.808,173.29,119.69,172.359z
		 M58.37,189.201c0.49-0.84,1.784-1.217,1.166-2.74c-0.725-0.51-0.733,0.626-1.182,0.729c-0.452,0.104-1.118-0.309-1.202,0.646
		C57.56,188.292,57.961,188.742,58.37,189.201z M60.237,172.236c1.005-0.03,1.594-0.723,2.059-1.707
		c-0.907-0.467-1.696-0.562-2.467,0.016C59.587,171.188,59.631,171.753,60.237,172.236z M118.892,160.908
		c0.882,1.984,1.375,3.1,2.006,4.521C121.549,163.393,121.307,162.105,118.892,160.908z M52.612,146.213
		c-0.16,1.784,0.614,2.312,1.278,2.803c0.534-0.5,0.959-0.897,1.424-1.334C54.427,147.201,53.64,146.773,52.612,146.213z"/>
	<path d="M123.906,129.178c0.44,0,0.882,0,1.536,0c-0.156,1.801,1.458,2.471,1.921,3.385c0.226,1.09-0.14,1.396-0.581,1.883
		c-0.478,0.72,0.629,0.731,0.659,1.193c0.634,1.387-1.534,1.733-0.81,3.103c1.494,0.196,1.637-1.048,1.859-2.204
		c2.174-1.395,4.059,0.654,6.115,0.645c-0.322,2.389,2.333,3.693,1.592,6.602c-0.273,0.617-0.865,1.47-2.008,1.424
		c-1.424-1.326,0.406-1.945,0.421-2.979c-0.749-1.275-0.965-2.946-2.155-3.957c-1.061,0.291-0.09,2.021-1.439,2.267
		c0.695,0.869,1.326,1.657,1.715,2.146c0.455,2.144-1.995,0.838-1.691,2.5c-0.822,0-1.646,0-2.39,0
		c-0.243-0.83-0.409-1.391-0.589-2.002c-1.105,0.521-2.619-1.134-3.264,1.002c-1.461,0.448-2.062-0.892-2.916-1.766
		c-1.352,0.915-2.752,1.155-4.213,0.318c0-0.373,0-0.702,0-1.043c0.6-1.041,1.66-0.135,2.707-0.938
		c0.142-0.104-0.197-0.706-0.019-1.097c0.629-1.369-1.771-1.621-0.731-3.097c0.554-0.691,1.043-0.295,1.73,0.19
		c1.221,0.862,0.389,2.485,1.189,3.61c0.246-1.549,0.955-2.351,2.334-2.62c-1.489-0.752-3.047-1.32-2.76-3.563
		c0.617,0.025,0.916-0.308,0.894-1.001c0.873-0.124,1.257-0.896,1.704-1.6C123.874,131.014,123.852,130.113,123.906,129.178z"/>
	<path fill="#FFFFFF" d="M124.797,144.182c0.646-2.136,2.158-0.48,3.265-1.002c0.181,0.611,0.345,1.172,0.589,2.002
		c0.742,0,1.566,0,2.391,0c-0.064,0.938,0.508,0.939,1.105,1.02c0.447,0.06,0.777,0.372,0.678,0.982
		c0.11,0.605-0.299,1.355,0.299,1.814c0.746,0.572,0.592,1.391,0.592,2.186c-0.439,0-0.879,0-1.379,0
		c-0.266,0.651-0.541,1.327-0.82,2.012c-1.062-0.752,0.158-2.354-0.993-3.014c-1.267-0.133-1.731,0.866-2.179,1.918
		c0.107,1.295,1.292,1.66,1.796,2.676c-1.069,0.718-2.187,0.408-3.39,0.248c-0.086-0.477-0.168-0.926-0.265-1.471
		c-0.579-0.867-1.628,0.012-2.338-0.527c-0.144-1.023,1.118-1.42,0.756-2.461c0.64-0.922,1.72,0.1,2.648-0.846
		c-0.487-1.636-1.392-3.299-0.943-4.973C125.976,143.879,125.342,144.307,124.797,144.182z"/>
	<path d="M128.97,117.514c-1.784-2.431-3.468-2.894-5.029-3.762c-0.263-1.566,1.164-2.301,1.313-4.157
		c1.588,1.87,2.856,3.364,4.166,4.906c1.309-1.701,0.334-3.456,0.922-5.11c0.199-0.396,0.691-0.153,1.318-0.273
		c0.78,2.164-0.625,4.981,1.592,6.733c0.621,0.438,0.904-1.765,2.221,0.123c0.16,0.582,0.158,1.818-0.236,3.262
		c-1.848-0.211-2.963-1.331-3.748-3.084c-0.617,1.378-1.221,2.723-1.896,4.229c-1.057-0.584-2.041-1.127-3.002-1.656
		C126.377,117.309,127.008,116.879,128.97,117.514z"/>
	<path d="M49.845,102.998c-0.397-1.512,1.638-2.622,0.763-4.639c-1.251,0.65-2.522,1.311-3.767,1.957
		c-0.961-1.456-0.721-2.577,0.572-3.825c-1.048-0.916-2.077-1.816-2.818-2.465c-0.246-2.124,1.494-2.367,1.742-3.707
		c-0.269-1.177-1.428-2.1-0.845-3.672c0.877-0.494,1.845-1.04,2.727-1.538c1.417,0.582,0.519,1.761,0.774,2.699
		c-0.519,0.204-1.035,0.406-1.576,0.619c-0.272,0.778,0.729,0.828,0.676,1.431c0.411,1.318-1.847,1.63-0.986,2.66
		c0.262,2.152,2.293,2.625,2.162,4.494c0.714-0.046,0.975-1.236,1.836-0.833c1.458,1.948,1.773,4.2,1.296,6.818
		C51.593,102.998,50.752,102.998,49.845,102.998z"/>
	<path d="M50.783,117.176c0-0.496,0-0.994,0-1.511c-0.966-1.274-2.614,0.313-3.58-1.026c-0.17-2.117,2.468-1.285,2.554-3.146
		c-0.481-0.209-0.99-0.43-1.57-0.683c0-0.417,0-0.865,0-1.637c2.098,0,4.13,0,6.163,0c0.414,1.283-0.813,1.968-0.896,3.072
		c-0.131,0.926,1.193,1.062,0.887,2.099c-0.124,0.246-0.347,0.766-0.382,0.748C52.097,114.277,52.896,118.553,50.783,117.176z"/>
	<path d="M123.015,133.18c0.022,0.692-0.274,1.025-0.894,1c-0.541-0.121-1.172,0.299-1.843-0.604c1.009-2.4,1.793-5.074-0.259-7.724
		c0.684-0.668,1.214-1.188,1.891-1.85c1.598,0.93,3.219,1.874,4.674,2.721c0.014,2.629-2.685,0.285-2.679,2.455
		c-0.772-0.062-0.896,0.494-0.893,1.178C123.018,131.296,123.015,132.238,123.015,133.18z"/>
	<path d="M150.659,103.735c-0.035,0.468,0.135,1.003-0.633,1.508c-1.413-1.055-3.212-1.365-5.037-1.042
		c-1.718,0.304-2.843-0.898-4.137-1.702c-0.029-0.512,0.005-0.984,0.432-1.304c0.885-0.37,1.272,0.473,1.827,0.975
		c0.949-1.084,0.002-2.548,0.56-3.643c0.361-0.538,1.105-0.471,1.181-0.29c0.459,1.115,1.924,0.603,2.151,1.145
		c0.302,2.341-1.358,1.349-1.767,2.55C147.125,102.286,149.163,102.145,150.659,103.735z"/>
	<path d="M148.875,136.561c0,1.113,0,1.608,0,2.168c-0.58,0.297-1.184,0.606-1.808,0.928c0.463,0.519,0.878,0.984,1.294,1.451
		c0.618-0.269,0.874-1.428,1.96-0.696c0.367,0.83,0.849,1.914,1.308,2.954c-0.59,0.839-0.951,1.785-2.121,1.832
		c-0.949-0.702-0.826-2.586-2.188-3.016c-1.023-0.342-1.458,1.785-2.703,0.721c-0.664-0.814-0.072-1.383,0.463-1.965
		c0.174-0.897-1.261-1.334-0.414-2.582C146.03,138.289,147.432,137.65,148.875,136.561z"/>
	<path d="M138.141,160.648c-0.633-0.955-1.674-0.102-2.496-0.688c-0.051-0.425-0.104-0.874-0.161-1.347
		c2.14-1.262,3.724,0.146,5.351,1.173c0.115,0.793-0.17,1.313-0.736,1.647c0.443,1.447,1.369,1.658,2.568,1.826
		c1.141,0.16,2.131,1.001,1.49,2.995c-2.326-0.858-4.604-1.7-6.85-2.528C136.665,162.342,138.838,162.007,138.141,160.648z"/>
	<path d="M134.536,137.156c0.133-0.938-0.125-1.493,0.356-1.803c1.219-0.912,1.63,1.302,2.718,0.826
		c1.352-1.714,1.735-3.818,2.141-6.25c1.035,1.127,2.071,2.256,3.039,3.311c-0.703,1.517-1.775,0.59-2.502,1.074
		c-0.576,1.557-1.406,3.015-1.351,4.922C137.092,139.143,136.034,137.656,134.536,137.156z"/>
	<path d="M133.152,119.859c0.608,1.388,1.087,2.474,1.543,3.512c-0.614,0.824-0.963,1.79-2.603,1.83
		c-0.612,0.027,0.175-1.377-0.396-1.797c-1.596,0.607-3.183,1.215-4.748,1.812c-1.094-1.881,1.225-2.478,0.858-3.916
		c0.876-0.467,1.337,0.207,1.789,0.762C130.667,121.4,131.72,120.747,133.152,119.859z"/>
	<path d="M53.389,180.788c0,0.388,0,1.026,0,1.918c-1.915,0.409-2.399,3.692-5.115,3.401c0-1.469,0-2.916,0-4.609
		c0.654-0.825,1.75-0.1,2.703-0.303C51.726,181.036,51.834,179.266,53.389,180.788z"/>
	<path d="M137.282,122.177c-0.15-1.032,0.146-1.874,0.852-2.524c-0.334-0.86-1.502-0.014-1.719-1.119
		c-0.263-1.211,0.797-1.563,1.213-2.225c1.646,0,3.227,0,4.877,0c0.039,0.571,0.07,1.02,0.099,1.409
		c-0.647,0.849-1.442,0.274-2.212,0.495c-0.564,1.278-1.163,2.629-1.752,3.964C138.163,122.177,137.723,122.177,137.282,122.177z"/>
	<path d="M49.406,80.16c-1.076,0.177-2.036,0.028-2.775-1.059c-1.191,0.164-2.127,1.723-4.134,0.557
		c0.127,0.082,0.302-0.455,0.225-1.161c1.259-0.408,2.667-0.496,3.743-1.499c0.452,0.417,0.78,0.717,1.129,1.039
		c1.025-0.098,0.095-1.503,1.008-1.831c1.184-0.361,1.579,0.845,2.185,1.653C50.907,79.106,49.922,79.464,49.406,80.16z"/>
	<path d="M158.229,111.175c-0.878,0.342-1.251-0.523-1.803-0.972c-0.729,1.038-0.672,2.847-2.324,2.972
		c-1.32-0.018-0.396-1.671-1.294-2.187c-0.683-0.392-1.485-1.107-1.259-2.314c0.229-0.167,0.461-0.334,0.72-0.521
		c1.196-0.014,1.517,1.347,2.353,1.933c0.905-0.231,0.104-1.54,1.344-1.944c0.896-0.037,1.652,1.23,2.691,1.525
		C158.729,110.416,158.627,110.859,158.229,111.175z"/>
	<path d="M164.062,55.397c-0.337,1.425-2.552,0.763-2.804,2.848c-0.164,1.352-1.842,1.462-3.035,2.088
		c0.023-1.546-1.766-2.174-1.314-3.558c0.438-0.839,0.93-0.52,1.285-0.623c0.666,0.388,0.344,1.191,0.66,1.703
		c0.208,0.383,0.387,0.334,0.628-0.078c0.882-1.506,1.845-2.965,3.429-3.583C163.467,53.976,164.062,54.242,164.062,55.397z"/>
	<path d="M135.499,166.188c1.25,0.494,1.938-1.314,3.184-0.955c0.904,0.957-0.028,2.219,0.494,3.104
		c-0.771,1.312-2.221,0.8-2.6,2.016c-1.476-0.75-2.182-1.641-1.97-3.164C135.224,167.212,135.521,166.879,135.499,166.188z"/>
	<path d="M147.983,95.047c-0.703,0.057-1.124,0.057-1.533,0.13c-1.281,0.23-1.578-1.919-2.878-1.104
		c-0.233-1.973,1.39-2.519,1.072-4.447c1.701,0.977,1.745,3.135,3.339,2.95C147.983,93.345,147.983,93.996,147.983,95.047z"/>
	<path d="M38.258,106.424c0.757-0.222,1.159-0.34,1.755-0.514c0.038-0.716,0.078-1.502,0.125-2.386
		c1.071-0.56,2.181-0.425,3.281-0.176c0.09,0.388,0.306,0.782,0.208,0.974c-1.113,2.163-2.785,3.419-4.728,3.882
		C38.102,107.694,38.361,107.136,38.258,106.424z"/>
	<path d="M158.458,104.925c1.002,0.249,1.406,0.35,1.766,0.438c0.398,0.71,0.331,1.278-0.167,1.779
		c-1.287,0.299-1.871-1.367-3.425-1.321c1.024-1.762,1.363-3.569,1.129-5.379c1.021-0.332,1.785-0.567,1.802,0.729
		C159.579,102.426,159.93,103.817,158.458,104.925z"/>
	<path d="M132.929,85.236c-0.093,1.135-0.154,1.924-0.224,2.792c-0.516,0.04-0.918,0.071-1.297,0.102
		c-0.718-1.118-0.227-2.308-0.377-3.464c1.58-0.893,3.17-1.791,4.65-2.626c0.588,0.409,0.809,0.786,0.621,1.585
		C135.256,84.17,134.348,85.411,132.929,85.236z"/>
	<path d="M41.42,114.052c1.078-2.051,1.347-3.989,2.796-4.877c1.351-0.024,1.431,1.27,2.465,1.557
		C45.486,113.205,43.933,113.971,41.42,114.052z"/>
	<path d="M131.851,95.308c1.312,1.995,0.899,3.269,0.885,4.831c-1.604,0.139-3.401-0.366-4.495,1.211
		c-0.664-0.455-0.83-0.855-0.727-1.639C128.938,98.439,131.389,98.497,131.851,95.308z"/>
	<path d="M142.918,128.193c1.858-0.312,3.768,0.084,5.289,2.07c-1.569,2.06-2.685,0.25-3.892-0.089
		c-0.873-0.108-1.075,1.9-2.272,0.765C140.896,129.775,142.525,129.158,142.918,128.193z"/>
	<path d="M140.256,153.332c1.771,0,2.763,0,3.85,0c0.891,0.99,0.104,1.641-0.57,2.292c0.437,0.769,1.645,1.29,0.398,2.592
		C141.601,158.037,141.73,155.473,140.256,153.332z"/>
	<path d="M19.697,61.08c-0.819,0-1.215,0-1.761,0c0-1.823,0-3.582,0-5.5c0.558-0.495,0.907-1.906,2.604-1.083
		C19.656,56.515,19.279,58.724,19.697,61.08z"/>
	<path d="M133.715,151.184c0-0.795,0.152-1.613-0.594-2.186c-0.597-0.459-0.188-1.209-0.299-1.814c0.44,0,0.881,0,1.301,0
		c0.637,0.368,0.379,1.144,0.614,1.68c1.042,0.685,2.269,0.086,3.353,0.394c0,0.724,0,1.17,0,1.929
		C136.586,151.184,135.15,151.184,133.715,151.184z"/>
	<path d="M147.454,156.439c0.129-1.697-1.461-2.278-1.254-3.715c0.4-0.629,0.911-0.682,1.493-0.371
		c0.192,0.584,0.388,1.16,0.574,1.727c1.071-0.145,0.239-2.512,1.897-1.882c0.943,0.714,0.393,1.722,0.369,2.624
		C149.654,155.285,148.784,155.742,147.454,156.439z"/>
	<path d="M35.62,103.655c1.046-0.793,1.521-2.485,3.045-2.54c1.274,1.381,0.133,2.2-0.607,2.747
		c-1.139,0.842-0.237,2.229-0.995,3.209c-0.323,0-0.725,0-1.129,0C35.326,105.968,35.749,104.789,35.62,103.655z"/>
	<path d="M135.499,166.188c0.022,0.691-0.274,1.024-0.892,1c-1.253-0.513-1.94,1.345-3.185,0.943
		c-0.717-0.632-0.242-1.533-0.463-2.677c1.486-0.036,2.809-0.745,3.981-1.341C135.778,164.852,135.385,165.573,135.499,166.188z"/>
	<path d="M142.633,128.178c-1.112,0-2.225,0-3.256,0c-0.434-0.99-0.592-1.746,0.402-1.975c0.583-0.135,1.129-0.13,1.068-1.025
		c1.113,0,2.225,0,3.256,0c0.434,0.99,0.591,1.747-0.402,1.975C143.12,127.287,142.573,127.283,142.633,128.178z"/>
	<path d="M60.695,201.958c-0.436,1.356-0.936,2.272-2.479,2.235c-0.467-1.762-0.165-3.873-1.374-5.385
		c0.905-0.808,1.827-0.933,1.89,0.059C58.831,200.41,60.178,200.604,60.695,201.958z"/>
	<path d="M139.497,115.162c-1.33,0.097-1.641-0.975-2.211-1.639c-0.027-0.517,0.06-0.931,0.404-1.332
		c1.018-1.184,2.307-1.649,3.445-2.083c0.709,0.477,0.585,1.005,0.604,1.452c-0.283,0.792-0.982,0.503-1.486,0.766
		C139.413,113.035,140.502,114.316,139.497,115.162z"/>
	<path d="M143.696,67.043c-0.266-1.496-0.318-2.736,0.143-3.975c1.938,0.124,2.326,2.776,4.31,2.249
		c-0.489,2.674-1.362,2.073-2.342,0.903C145.215,66.59,144.868,67.551,143.696,67.043z"/>
	<path d="M138.145,106.94c0.109,3.808-2.882,2.768-3.583,4.581c-1.308-1.137-0.517-2.14-1.312-3.569
		C135.299,108.638,136.352,107.359,138.145,106.94z"/>
	<path d="M160.353,63.743c0.213,2.525-1.726,3.578-0.022,6.229c-2.154-1.443-2.562-2.04-3.521-4.264
		C157.851,65.131,158.893,64.552,160.353,63.743z"/>
	<path d="M137.282,125.178c0.121-1.533-1.423-0.55-1.761-1.685c0.019-0.191,0.058-0.623,0.121-1.316c0.587,0,1.112,0,1.64,0
		c-0.102,0.62,0.236,0.945,0.69,0.98c0.858,0.067,1.725,0.02,2.407,0.02c0.736,0.681,0.358,1.392,0.469,2.001
		C139.659,125.178,138.471,125.178,137.282,125.178z"/>
	<path d="M42.403,164.055c0.31,1.913,1.271,3.303,3.025,3.426c0.007,0.83,0.053,1.33-0.463,1.693
		c-2.018-0.093-3.002-1.835-3.954-3.508C40.75,165.208,40.833,164.354,42.403,164.055z"/>
	<path d="M35.786,114.215c1.681-0.244,2.172,1.565,3.787,1.23c-0.836,2.291-2.644,1.673-3.333,3.269
		C35.337,116.828,35.671,115.5,35.786,114.215z"/>
	<path d="M150.766,113.582c-2.301,2.214-1.561-2.81-3.381-1.572c-0.453-0.888-0.444-1.771,0.043-2.763
		c0.347,0.022,0.863-0.124,1.109,0.102C149.745,110.46,150.331,112.002,150.766,113.582z"/>
	<path d="M178.159,103.363c0.551-1.126,1.102-2.252,1.805-3.69c1.306,1.173,1.351,2.642,2.033,3.92
		c-1.144,1.127-2.385,0.213-3.484,0.669C178.395,103.962,178.276,103.663,178.159,103.363z"/>
	<path d="M45.544,136.163c0-1.902,0-3.823,0-5.826c0.497-0.058,0.893-0.104,1.483-0.173c0,1.949,0,3.818,0,5.74
		C46.593,136.475,45.969,136.047,45.544,136.163z"/>
	<path d="M130.147,131.18c0.434,0,0.865,0,1.352,0c0.818,1.09,0.303,2.379,0.389,3.666c-1.079,0.563-2.17,0.353-3.364,0.168
		c-0.065-0.465-0.128-0.906-0.174-1.229c0.396-0.974,1.503-0.183,1.799-1.378C130.147,132.148,130.147,131.664,130.147,131.18z"/>
	<path d="M141.821,139.104c1.557,0.893,2.291,2.101,1.227,4.289c-1.084-0.604-2.123-1.184-3.096-1.726
		C139.95,140.121,140.75,139.566,141.821,139.104z"/>
	<path d="M32.835,77.698c-1.599-0.972-2.605-1.583-3.763-2.288c0.816-1.694,2.266-1.503,3.309-2.465
		C33.363,74.296,32.844,75.653,32.835,77.698z"/>
	<path d="M20.569,24.513c-0.522-1.125-0.968-2.083-1.457-3.135c0.471-1.005,0.967-2.065,1.436-3.067
		c0.439,0.093,0.714,0.151,0.991,0.211c1.361,1.385-0.975,1.819-0.604,2.949C20.989,22.43,23.073,23.388,20.569,24.513z"/>
	<path d="M39.635,95.171c-0.581,0-1.163,0-1.719,0c-0.66,0.347-0.41,1.109-0.65,1.682c-0.479,0.501-0.979,0.484-1.421,0.078
		c-1.034-1.624,1.63-1.952,0.502-3.41c1.41-0.507,2.494-0.507,3.531-0.134C40.215,94.136,40.147,94.702,39.635,95.171z"/>
	<path d="M151.7,86.256c0.547,0,0.944,0,1.485,0c0,1.975,0,3.861,0,5.828c-0.548,0-0.947,0-1.485,0
		C151.7,90.108,151.7,88.222,151.7,86.256z"/>
	<path d="M32.056,51.161c0-1.162,0-2.326,0-3.49c0.76-0.56,1.095-2.16,2.701-1.107c-0.044,1.6-1.597,2.835-0.903,4.597
		C32.945,51.161,32.5,51.161,32.056,51.161z"/>
	<path d="M51.512,180.21c-2.706,0.254-2.39-2.748-3.574-4.122c0.67-1.135,1.827-1.099,1.791-0.471
		C49.614,177.671,52.579,177.898,51.512,180.21z"/>
	<path d="M47.383,125.482c-0.499,2.597-1.401,1.428-2.838,0.902c-0.168,0.012-0.858,1.78-1.792,0.225
		c-0.263-1.242,0.858-1.575,1.195-2.359C45.523,123.841,45.939,125.898,47.383,125.482z"/>
	<path d="M182.415,7.862c0.851,2.292-1.07,2.876-0.963,4.29c-0.332,0-0.758,0.137-0.885-0.023c-0.538-0.678-1.516-1.048-1.352-2.485
		C180.155,9.121,181.194,8.542,182.415,7.862z"/>
	<path d="M23.261,2.734c-1.307,0.789-1.775,0.102-2.269-0.498c-0.711,0.245-1.119,1.865-2.178,0.562
		c-0.567-1.484,0.681-1.88,1.42-2.797C21.21,0.866,22.913,0.641,23.261,2.734z"/>
	<path d="M139.555,100.23c-0.985-1.065-0.405-1.782,0.338-2.437c-0.264-0.727-1.18-1.087-0.825-2.079
		c0.271-0.441,0.634-0.638,1.267-0.474c1.049,0.543,0.315,2.372,1.557,2.672C141.322,99.407,140.67,100.168,139.555,100.23z"/>
	<path d="M17.076,121.738c-1.006,1.006-0.317,3.242-2.368,3.505c-1.041-1.238-0.14-2.541-0.549-3.616
		C15.181,121.018,15.973,120.979,17.076,121.738z"/>
	<path d="M183.741,51.079c-1.086,0-1.773,0-2.8,0c0.142-1.804,0.834-3.018,1.907-4.221
		C184.116,48.125,183.428,49.497,183.741,51.079z"/>
	<path d="M38.514,122.264c0.472,0,0.87,0,1.348,0c0.356,1.297,0.34,2.518,0.004,3.827c-0.473,0-0.871,0-1.349,0
		C38.162,124.794,38.178,123.574,38.514,122.264z"/>
	<path d="M27.579,52.754c0.515,1.41-1.39,1.999-1.292,3.422c-0.454-0.082-0.938,0.2-1.346-0.606c-0.515-1.41,1.39-1.999,1.293-3.422
		C26.687,52.229,27.17,51.947,27.579,52.754z"/>
	<path d="M148.754,51.094c0.892-0.126,1.269,0.017,1.545,0.463c0.162,1.35-1.184,2.032-1.145,3.284
		c-0.631,0.324-1.134,0.261-1.539-0.33C147.452,53.147,148.797,52.465,148.754,51.094z"/>
	<path d="M141.956,120.264c0.474,0,0.871,0,1.349,0c0.356,1.297,0.341,2.518,0.005,3.826c-0.473,0-0.87,0-1.348,0
		C141.604,122.794,141.62,121.574,141.956,120.264z"/>
	<path d="M32.056,51.161c-0.745,3.159-0.972,3.506-2.53,3.764c-0.699-1.694,1.328-2.324,1.167-3.764
		C31.168,51.161,31.612,51.161,32.056,51.161z"/>
	<path d="M176.547,58.596c-0.109,0.49,0.23,1.055-0.353,1.379c-1.45,0.752-1.964-1.458-3.253-1.311
		c0.111-0.49-0.229-1.055,0.354-1.379C174.747,56.533,175.26,58.742,176.547,58.596z"/>
	<path d="M136.354,129.475c0.068,0.981-0.002,1.433-0.566,1.728c-1.096,0.182-1.674-1.399-2.886-1.347c0-0.473,0-0.912,0-1.344
		C134.441,127.374,134.986,129.909,136.354,129.475z"/>
	<path d="M13.019,48.435c0.887-0.171,1.156-0.223,1.635-0.315c0.489,1.109,1.005,2.278,1.567,3.55
		c-0.556,0.246-0.928,0.411-1.484,0.657C14.191,51.093,13.676,49.924,13.019,48.435z"/>
	<path d="M152.407,130.475c0.067,0.981-0.003,1.433-0.568,1.728c-1.094,0.182-1.672-1.399-2.885-1.347c0-0.472,0-0.912,0-1.342
		C150.493,128.374,151.038,130.909,152.407,130.475z"/>
	<path d="M28.917,134.07c0.088-1.301-1.816-1.889-1.301-3.299c0.409-0.807,0.892-0.523,1.325-0.603
		c0.467,1.063,0.938,2.134,1.368,3.112C30.139,133.9,29.945,134.299,28.917,134.07z"/>
	<path d="M167.713,43.557c-0.881,0.93-1.643,0.436-2.348,0.611c-0.715-0.991-0.685-1.987-0.017-3.034
		C166.749,41.112,167.272,42.14,167.713,43.557z"/>
	<path d="M154.303,42.918c0-0.531,0-0.977,0-1.512c1.154-0.4,2.244-0.382,3.412-0.006c0,0.53,0,0.977,0,1.512
		C156.56,43.312,155.471,43.294,154.303,42.918z"/>
	<path d="M168.411,131.089c0,0.851,0,1.296,0,1.767c-1.137,0.697-2.229,0.088-3.4,0.414c0-0.852,0-1.297,0-1.767
		C166.145,130.805,167.239,131.416,168.411,131.089z"/>
	<path d="M28.753,39.001c1.087,0.955,0.3,1.956,0.702,2.688c-1.017,0.646-1.806,0.646-2.697,0.08
		C26.509,39.908,27.677,39.49,28.753,39.001z"/>
	<path d="M148.875,137.18c0-0.591,0-1.182,0-1.615c1.584-1.174,2.233,1.572,3.565,0.615c0,0.592,0,1.182,0,1.615
		C150.856,138.97,150.208,136.223,148.875,137.18z"/>
	<path d="M52.721,195.287c0.553,0,0.95,0,1.474,0c0,1.314,0,2.537,0,3.814c-0.553,0-0.95,0-1.474,0
		C52.721,197.787,52.721,196.564,52.721,195.287z"/>
	<path d="M175.881,37.359c0.543,0.446,0.738,0.836,0.543,1.714c-0.828,0.461-1.866,1.04-2.816,1.569
		c-0.542-0.446-0.736-0.836-0.541-1.714C173.895,38.468,174.932,37.889,175.881,37.359z"/>
	<path d="M177.702,31.136c-0.261-0.046-0.738,0.229-1.063-0.378c-0.415-0.849,0.132-1.364,0.62-1.958
		c0.363-0.441-0.096-1.322,0.754-1.624c0.26,0.046,0.738-0.229,1.062,0.378c0.416,0.849-0.131,1.364-0.619,1.958
		C178.092,29.954,178.551,30.834,177.702,31.136z"/>
	<path d="M38.279,146.717c0.111-0.49-0.23-1.056,0.353-1.38c1.451-0.752,1.964,1.458,3.252,1.312
		c-0.111,0.49,0.229,1.056-0.353,1.379C40.081,148.78,39.568,146.57,38.279,146.717z"/>
	<path d="M148.958,97.261c0-0.851,0-1.296,0-1.765c1.137-0.7,2.229-0.089,3.4-0.416c0,0.852,0,1.297,0,1.766
		C151.223,97.545,150.129,96.935,148.958,97.261z"/>
	<path d="M165.708,13.336c-1.355,2.039-2.695,1.109-3.769,1.226c-0.573-0.348-0.274-0.91-0.417-1.465
		C162.762,12.476,163.952,12.49,165.708,13.336z"/>
	<path d="M34.154,99.805c-1.817-1.521-0.988-3.023-1.093-4.227c0.31-0.643,0.811-0.308,1.307-0.469
		C34.922,96.501,34.908,97.835,34.154,99.805z"/>
	<path d="M168.277,101.085c-0.473,0-0.868,0-1.348,0c-0.354-1.296-0.341-2.518-0.005-3.827c0.473,0,0.869,0,1.349,0
		C168.629,98.554,168.614,99.776,168.277,101.085z"/>
	<path d="M154.297,102.318c0-1.599,0-2.704,0-3.655c0.369-0.72,0.865-0.395,1.295-0.529c0.732,1.191,0.371,2.46,0.318,3.6
		C155.568,102.401,155.072,102.076,154.297,102.318z"/>
	<path d="M29.073,91.279c-0.975-0.866-0.506-1.842-0.468-2.748c0.778-0.797,1.586-0.019,2.458-0.549
		C31.342,90.339,30.278,90.875,29.073,91.279z"/>
	<path d="M28.705,82.255c0.473,0,0.87,0,1.349,0c0.356,1.296,0.34,2.517,0.004,3.827c-0.473,0-0.87,0-1.348,0
		C28.353,84.786,28.369,83.565,28.705,82.255z"/>
	<path d="M47.216,105.666c-0.288,0.434-0.673,0.588-1.36,0.433c-0.441-1.033-0.949-2.221-1.454-3.403
		c0.473-0.257,0.72-0.39,1.286-0.697C46.418,103.048,47.317,104.026,47.216,105.666z"/>
	<path d="M163.188,83.168c0.438,0.075,0.912-0.193,1.346,0.575c0.58,1.43-1.435,2.001-1.277,3.446
		c-0.438-0.074-0.911,0.193-1.346-0.574C161.333,85.185,163.347,84.613,163.188,83.168z"/>
	<path d="M129.256,105.173c0-0.498,0-0.996,0-1.538c0.968-0.535,1.949-1.078,2.802-1.549c0.871,0.421,0.989,1.463,0.649,1.605
		C131.56,104.183,130.684,105.54,129.256,105.173z"/>
	<path d="M174.222,103.199c0.7,0.472,0.454,1.01,0.524,1.508c-1.281-0.146-1.793,2.063-3.063,1.44
		c-0.7-0.471-0.455-1.009-0.524-1.507C172.438,104.786,172.95,102.576,174.222,103.199z"/>
	<path d="M179.415,80.254c0.479,0,0.875,0,1.348,0c0.336,1.31,0.352,2.531-0.004,3.827c-0.479,0-0.875,0-1.348,0
		C179.075,82.771,179.059,81.551,179.415,80.254z"/>
	<path d="M139.875,175.098c0,0.853,0,1.297,0,1.766c-1.138,0.703-2.23,0.089-3.402,0.418c0-0.854,0-1.299,0-1.766
		C137.609,174.812,138.704,175.427,139.875,175.098z"/>
	<path d="M144.292,77.892c0.396-0.608,0.744-0.826,1.525-0.607c0.412,0.929,0.93,2.093,1.398,3.159
		c-0.396,0.608-0.743,0.827-1.526,0.607C145.278,80.122,144.762,78.958,144.292,77.892z"/>
	<path d="M42.193,180.542c1.355-2.038,2.695-1.108,3.768-1.226c0.572,0.348,0.275,0.908,0.417,1.465
		C45.138,181.404,43.949,181.389,42.193,180.542z"/>
	<path d="M168.577,74.256c0-0.851,0-1.296,0-1.763c1.135-0.704,2.229-0.09,3.4-0.417c0,0.851,0,1.296,0,1.763
		C170.842,74.543,169.747,73.929,168.577,74.256z"/>
	<path d="M175.042,15.656c-1.358,0-2.345,0-3.199,0c-0.618-0.418-0.37-0.962-0.438-1.437c1.014-1.098,2.194-0.077,3.008-0.495
		C175.167,14.236,174.918,14.78,175.042,15.656z"/>
	<path d="M57.18,109.267c0.552,0,0.95,0,1.474,0c0,1.314,0,2.538,0,3.815c-0.553,0-0.95,0-1.474,0
		C57.18,111.768,57.18,110.544,57.18,109.267z"/>
	<path d="M137.42,181.128c-0.229,1.019,0.111,1.583,0.039,1.618c-2.016,1.202-2.328-1.617-3.885-0.493
		c0.231-1.019-0.109-1.584-0.037-1.619C135.553,179.432,135.866,182.252,137.42,181.128z"/>
	<path d="M168.036,70.168c-1.205,0.187-1.83-1.284-2.938-1.281c-0.297-0.695-0.24-1.26,0.285-1.725
		c1.205-0.187,1.83,1.285,2.938,1.282C168.618,69.138,168.563,69.703,168.036,70.168z"/>
	<path d="M17.48,117.285c-0.976-0.866-0.506-1.842-0.468-2.748c0.778-0.797,1.586-0.02,2.458-0.549
		C19.75,116.345,18.686,116.882,17.48,117.285z"/>
	<path d="M167.024,65.797c-1.816-1.521-0.988-3.023-1.094-4.23c0.314-0.62,0.805-0.335,1.32-0.428
		C167.792,62.494,167.778,63.828,167.024,65.797z"/>
	<path d="M25.25,60.516c1.356-2.039,2.696-1.109,3.768-1.226c0.572,0.348,0.275,0.91,0.417,1.465
		C28.195,61.376,27.005,61.361,25.25,60.516z"/>
	<path d="M143.62,182.536c-0.771,1.095-1.641,0.567-2.445,0.524c-0.523-0.877-0.439-1.767,0.004-2.83
		C142.784,179.991,143.262,181.186,143.62,182.536z"/>
	<path d="M146.602,117.128c1.626,0.188,2.154,1.166,2.34,2.448c-0.777,1.117-1.671,0.227-2.322,0.684
		C146.043,119.119,146.043,118.234,146.602,117.128z"/>
	<path d="M161.442,119.268c0-0.853,0-1.298,0-1.761c1.137-0.717,2.229-0.088,3.4-0.423c0,0.854,0,1.298,0,1.761
		C163.708,119.562,162.613,118.934,161.442,119.268z"/>
	<path d="M46.812,187.448c-1.623-0.673-2.398-1.384-2.254-2.86c0.369-0.17,0.69-0.456,0.848-0.369
		C46.49,184.818,47.755,185.377,46.812,187.448z"/>
	<path d="M41.009,166.568c-0.131,0.567,0.223,1.148-0.775,1.621c-1.19,0.039-1.853-0.891-1.958-2.477
		C39.531,164.251,40.104,166.027,41.009,166.568z"/>
	<path d="M160.877,95.664c-0.672,2.508-1.142,3.702-3.067,3.421C157.706,97.031,158.756,96.501,160.877,95.664z"/>
	<path d="M173.223,101.893c-1.584,0.558-1.988-0.181-2.506-0.714c-0.479-0.492-0.564-1.028-0.158-2.004
		C172.154,99.065,172.633,100.252,173.223,101.893z"/>
	<path d="M47.216,104.173c0-0.587,0-1.172,0-1.531c1.381-1.345,1.758,0.691,2.675,0.53c0,0.587,0,1.172,0,1.531
		C48.51,106.048,48.133,104.012,47.216,104.173z"/>
	<path d="M129.256,105.173c0.082,1.925-0.713,2.867-2.73,3.064C126.7,105.973,127.54,105.083,129.256,105.173z"/>
	<path d="M39.601,86.662c-0.673,2.507-1.142,3.702-3.068,3.421C36.429,88.029,37.479,87.5,39.601,86.662z"/>
	<path d="M160.519,54.415c-1.849-0.492-2.86-1.065-2.661-3.277C159.529,51.238,160.403,51.91,160.519,54.415z"/>
	<path d="M54.338,109.266c0.146-1.116-1.487-1.402-0.835-2.643c0.869-0.976,1.011-0.88,2.63,1.77
		C55.899,109.691,54.952,108.936,54.338,109.266z"/>
	<path d="M164.842,56.932c0.219,2.418-0.795,2.992-2.313,3.396C161.934,58.147,162.954,57.464,164.842,56.932z"/>
	<path d="M130.147,131.18c-1.613,0.244-2.352-0.761-2.756-2.332C129.432,128.225,129.432,128.225,130.147,131.18z"/>
	<path d="M41.322,133.334c-0.472-1.134-0.387-1.67,0.092-2.162c0.517-0.533,0.921-1.271,2.034-0.88
		C43.967,132.195,42.947,132.877,41.322,133.334z"/>
	<path d="M152.441,136.18c-0.081-1.925,0.714-2.867,2.731-3.063C154.999,135.38,154.157,136.271,152.441,136.18z"/>
	<path d="M182.4,21.111c-0.003-1.61,0.763-1.955,1.241-2.476c0.217-0.235,0.749-0.104,1.109-0.137
		c0.14,0.377,0.395,0.737,0.316,0.913C184.534,20.63,184.036,22.048,182.4,21.111z"/>
	<path d="M2.922,26.609C2.483,28.681,1.971,29.816,0,29.593C0.09,27.717,0.689,26.737,2.922,26.609z"/>
	<path d="M141.104,146.055c-2.199,0.321-2.668-0.873-3.107-2.51C139.988,142.754,140.525,144.014,141.104,146.055z"/>
	<path d="M25.214,70.255c0.39,0,0.786,0,1.142,0c0.73,0.945,0.043,1.841,0.51,2.818C25.021,72.712,25.021,72.712,25.214,70.255z"/>
	<path d="M38.378,71.837c0-0.437,0-0.881,0-1.28c0.842-0.818,1.642-0.053,2.512-0.569C40.569,72.055,40.569,72.055,38.378,71.837z"
		/>
	<path d="M176.6,48.777c0-0.408,0-0.853,0-1.252c0.877-0.526,1.671-0.562,2.516,0.018c0,0.408,0,0.853,0,1.252
		C178.236,49.322,177.443,49.358,176.6,48.777z"/>
	<path d="M165.738,28.539c0,0.408,0,0.853,0,1.252c-0.878,0.526-1.671,0.562-2.516-0.018c0-0.409,0-0.853,0-1.252
		C164.101,27.995,164.894,27.958,165.738,28.539z"/>
	<path d="M6.223,6.94C5.165,9.391,4.145,8.868,3.26,8.763c-0.521-0.332-0.268-0.88-0.332-1.332C3.817,6.296,4.714,7.201,6.223,6.94z
		"/>
	<path d="M55.316,204.34c0-1.265,0-2.039,0-2.666c0.375-0.688,0.857-0.413,1.265-0.484c0.801,0.795,0.402,1.756,0.308,2.638
		C56.58,204.421,56.087,204.1,55.316,204.34z"/>
	<path d="M19.247,70.792c0-0.59,0-1.035,0-1.443c0.844-0.58,1.637-0.544,2.586,0.025C21.906,71.938,20.347,70.706,19.247,70.792z"/>
	<path d="M39.927,80.078c-0.55,0-0.947,0-1.303,0c-0.47-0.984-0.502-1.874,0.015-2.821c0.364,0,0.761,0,1.288,0
		C39.927,78.237,39.927,79.128,39.927,80.078z"/>
	<path d="M40.007,179.568c0,0.398,0,0.845,0,1.242c-0.867,0.561-1.659,0.561-2.526,0c0-0.397,0-0.844,0-1.242
		C38.348,179.01,39.14,179.01,40.007,179.568z"/>
	<path d="M137.758,81.167c-0.322,0-0.612,0-0.905,0c-0.952-0.754-0.124-1.783-0.462-2.374c0.427-0.844,0.915-0.559,1.348-0.637
		C138.445,79.163,138.426,80.163,137.758,81.167z"/>
	<path d="M48.925,81.098c0,1.19,0,1.963,0,2.591c-0.375,0.688-0.857,0.413-1.265,0.484c-0.801-0.795-0.402-1.754-0.308-2.641
		C47.665,80.958,48.147,81.234,48.925,81.098z"/>
	<path d="M142.633,160.721c0-0.361,0-0.688,0-1.017c0.672-1.069,1.59-0.14,2.115-0.521c0.752,0.479,0.498,1.027,0.567,1.514
		C144.42,161.49,143.528,161.469,142.633,160.721z"/>
	<path d="M140.032,108.244c0-1.19,0-1.964,0-2.591c0.374-0.688,0.856-0.413,1.266-0.484c0.801,0.795,0.4,1.754,0.307,2.641
		C141.292,108.383,140.81,108.108,140.032,108.244z"/>
	<path d="M137.282,125.312c0,0.666,0,0.985,0,1.326c-0.631,0.963-1.512,0.435-2.285,0.479c-0.543-0.51-0.447-1.078-0.193-1.805
		C135.631,125.312,136.45,125.312,137.282,125.312z"/>
	<path d="M38.378,142.007c0-0.616,0-1.062,0-1.461c0.878-0.526,1.671-0.562,2.515,0.019c0,0.408,0,0.853,0,1.442
		C40.019,142.007,39.225,142.007,38.378,142.007z"/>
	<path d="M143.108,147.093c-0.289,0-0.686,0-0.953,0c-0.592-0.438-0.404-0.973-0.402-1.43s-0.201-1.002,0.404-1.392
		c0.289,0,0.686,0,0.954,0c0.591,0.438,0.402,0.972,0.4,1.429C143.511,146.158,143.713,146.704,143.108,147.093z"/>
	<path fill="#FFFFFF" d="M49.902,154.178c-0.139-0.604,0.272-1.324-0.604-2.096c-1.167,1.227-2.654,2.152-3.415,4.186
		c-1.393-2.48,0.494-3.478,1.755-5.095c1.422,0.288,3.18-0.672,4.755,1.167c1.785-1.512,4.127-1.02,6.019-2.309
		c0.703,1.586,0.23,2.806,0.417,4.107c-1.166-0.24-0.805-1.029-1.125-1.923C55.153,152.855,52.416,152.848,49.902,154.178z"/>
	<path fill="#FFFFFF" d="M51.5,139.28c2.78-0.671,3.385,2.674,5.404,3.264c-0.135,0.89-1.529,1.127-0.701,2.63
		c-1.47-1.559-3.139-0.677-4.504-1.146c0.257-1.307,1.421-0.404,1.941-2.377C53.787,140.965,51.91,140.577,51.5,139.28z"/>
	<path fill="#FFFFFF" d="M119.954,158.602c2.5-0.443,3.971-3.088,6.6-2.207c-1.857,1.519-2.971,3.443-4.122,6.388
		C122.472,160.477,120.704,160.542,119.954,158.602z"/>
	<path fill="#FFFFFF" d="M57.203,167.505c-0.695,0.745-1.359,1.229-0.97,2.361c0.432,0.17,0.948,0.37,1.741,0.683
		c-0.824,1.354-2.908-0.398-2.995,2.168c-0.587-1.668-2.02-1.249-2.371-1.904c-0.153-1.758,0.845-1.393,1.354-1.782
		c0.377-0.289,0.45-1.078,0.661-1.652C55.468,167.025,56.267,167.157,57.203,167.505z"/>
	<path fill="#FFFFFF" d="M49.891,154.184c0.111,0.611-0.272,1.326,0.252,1.803c1.232,0.926,1.646-1.243,2.925-0.646
		c0.231,0.412,0.596,1.062,0.964,1.721c-0.402,0.478-1.185-0.049-1.822,0.114c-0.695,0.354-0.424,1.138-0.678,1.681
		c-0.459,0.638-1.096,0.205-1.641,0.33c-0.022-0.752-0.01-1.414-0.487-2.146C48.801,156.115,48.308,154.82,49.891,154.184z"/>
	<path fill="#FFFFFF" d="M121.252,208.368c-1.316-0.495-0.397-2.366-2.074-2.146c-1.129,0.83-1.04,2.756-2.051,3.879
		c-1.151-1.918,0.502-3.184,0.85-4.821c0.98,0,1.97,0,2.906,0C121.5,206.248,121.116,207.255,121.252,208.368z"/>
	<path fill="#FFFFFF" d="M58.77,155.63c0,1.62,0,2.272,0,3.058c-0.3,0.983-1.77,0.065-2.174,2.002
		c-0.346-0.953-0.558-1.539-0.397-1.097c-0.983-0.878-0.792-1.013-0.589-1.366C56.283,157.048,57.737,157.345,58.77,155.63z"/>
	<path fill="#FFFFFF" d="M58.926,193.12c0-0.849,0-1.771,0-2.647c0.913-0.347,1.704-0.543,2.504,0.146
		C61.902,193.15,59.312,191.884,58.926,193.12z"/>
	<path fill="#FFFFFF" d="M124.833,191.186c-1.508,0.328-2.345-1.064-3.85-1.569c1.396-0.646,2.475-0.433,3.719-0.252
		C124.745,189.984,124.788,190.583,124.833,191.186z"/>
	<path fill="#FFFFFF" d="M121.811,202.49c-0.57-1.251-1.539-1.163-2.223-1.637c-0.264-0.638-0.203-1.199,0.414-1.756
		C121.42,199.497,122.439,200.18,121.811,202.49z"/>
	<path fill="#FFFFFF" d="M119.69,172.359c1.117,0.931-0.031,2.744,1.553,3.312c-0.429,0.589-0.932,0.665-1.546,0.322
		C119.108,174.807,119.647,173.591,119.69,172.359z"/>
	<path fill="#FFFFFF" d="M58.37,189.201c-0.409-0.459-0.811-0.909-1.218-1.366c0.083-0.954,0.75-0.543,1.202-0.646
		c0.449-0.103,0.458-1.237,1.182-0.729C60.154,187.984,58.86,188.361,58.37,189.201z"/>
	<path fill="#FFFFFF" d="M60.237,172.236c-0.606-0.482-0.65-1.049-0.409-1.692c0.772-0.576,1.561-0.479,2.468-0.015
		C61.831,171.514,61.243,172.206,60.237,172.236z"/>
	<path fill="#FFFFFF" d="M118.892,160.908c2.415,1.197,2.657,2.484,2.006,4.521C120.267,164.007,119.773,162.893,118.892,160.908z"
		/>
	<path fill="#FFFFFF" d="M52.612,146.213c1.028,0.561,1.815,0.987,2.703,1.469c-0.465,0.437-0.891,0.834-1.424,1.334
		C53.227,148.525,52.453,147.998,52.612,146.213z"/>
	<path fill="#FFFFFF" d="M123.015,133.18c0-0.941,0.003-1.884-0.001-2.824c-0.003-0.684,0.119-1.238,0.893-1.178
		c-0.055,0.936-0.031,1.836,0.813,2.401C124.271,132.284,123.888,133.055,123.015,133.18z"/>
</g>
</svg>
