<?xml version="1.0" encoding="utf-8"?>
<!-- Generator: Adobe Illustrator 16.0.0, SVG Export Plug-In . SVG Version: 6.00 Build 0)  -->
<!DOCTYPE svg PUBLIC "-//W3C//DTD SVG 1.1//EN" "http://www.w3.org/Graphics/SVG/1.1/DTD/svg11.dtd">
<svg version="1.1" id="Layer_1" xmlns="http://www.w3.org/2000/svg" xmlns:xlink="http://www.w3.org/1999/xlink" x="0px" y="0px"
	 width="185.083px" height="222.25px" viewBox="0 0 185.083 222.25" enable-background="new 0 0 185.083 222.25"
	 xml:space="preserve">
<g>
	<path fill-rule="evenodd" clip-rule="evenodd" d="M51.587,139.23c0.087-0.548,0.087-1.047,0.087-1.565
		c-0.901-0.951-1.547,1.42-2.462,0.254c-0.954-1.332,0.974-1.838,0.689-2.964c-0.32-0.535-0.629-1.054-0.936-1.567
		c0.751-2.145,1.488-4.248,2.151-6.139c1.79-0.346,1.161,1.352,1.879,1.883c0.388-0.406,0.792-0.828,1.194-1.248
		c-0.89-2.113-1.731-4.068-3.983-5.013c-1.191-0.499-2.212-2.001-2.554-3.674c-0.447,0.367-0.686,1.118-1.433,0.976
		c-1.243,0.087-0.444-1.356-1.028-1.775c-0.709-0.651-1.792,0.319-2.423-0.711c0-0.318,0-0.647,0-1.325
		c1.486-0.043,2.888-0.514,4.511,0.256c1.014,0.48,2.449-0.772,3.505,0.56c0.933,1.088,1.865,2.176,2.703,3.153
		c1.54-0.766,0.26-2.419,1.305-3.137c0.269,0,0.562,0,0.87,0c1.506,1.619-0.336,2.86-0.438,4.353
		c1.326,0.768,2.509,1.937,4.164,1.757c0.492,1.109,0.556,2.799,1.977,2.822c1.887,0.032,0.169,2.842,2.798,2.243
		c-2.211,2.438-2.259,4.325-0.679,5.99c-0.495,0.602-0.792,0.962-1.062,1.289c0.862,1.066,1.003,2.914,2.61,2.96
		c0.176,1.683-1.106,2.03-1.651,2.961c0.133,0.91,0.85,0.484,1.625,0.854c-0.405,2.475,0.754,4.635,1.906,6.925
		c-0.223,0.356-0.463,0.739-0.751,1.2c0.556,1.726,1.145,3.548,1.723,5.341c0.557,0.224,1.072,0.431,1.492,0.6
		c0.825,1.491-1.363,1.857-0.36,4.041c-0.071-0.16,0.638-0.476,1.422,0.014c-0.579,2.237,0.707,4.52,0.363,7.452
		c1.121,0.709,1.285,2.717,2.186,3.725c0.258,1.3-0.627,1.411-0.81,2.545c0.589,1.867,2.408,3.833,1.784,6.275
		c0.44,0.885,0.947,0.549,1.406,0.708c1.08,4.734,1.862,9.637,3.716,14.182c-0.535,2.654,2.007,4.225,1.948,6.553
		c-0.065,2.558,1.936,4.102,2.036,6.657c0.045,1.148,1.335,2.526,1.858,4.063c0.427,1.259,1.299,2.788,2.333,3.908
		c1.067,1.156,2.103,2.35,3.181,3.558c0.558,0,1.144,0,1.948,0c6.806-7.397,9.126-17.452,12.592-28.154
		c-0.151,0.124,0.561-0.461,1.228-1.011c-0.553-0.905-1.359-1.322-0.959-2.467c0.438-0.17,0.955-0.371,1.628-0.632
		c0.05-1.05,0.104-2.17,0.16-3.388c0.486-0.195,1.002-0.402,1.518-0.609c0.717-1.165-0.374-1.693-0.758-2.287
		c0.972-3.352,2.032-6.464,1.842-9.886c0.935-0.597,2.084-0.882,2.609-2.121c-0.369-0.472-0.957-0.808-0.816-1.633
		c0.017-1.293,1.271-0.408,1.752-1.351c0.604-0.979-0.797-1.389-0.912-2.575c-0.086-0.527,0.536-0.836,0.905-1.344
		c-0.282-0.346-0.568-0.697-0.93-1.139c0.371-2.385,2.857-4.133,1.657-6.931c0.805-0.348,1.316-0.568,1.973-0.854
		c-0.521-2.135,1.257-4.158-0.03-6.142c1.508-1.308,2.136,1.395,3.419,0.258c-0.28-1.217-1.58-2.584,0.11-3.872
		c1.652,0.871,1.216,3.123,2.419,4.153c1.91,0.147,0.994-1.5,1.217-2.347c0.192-1.179,1.967-0.033,1.788-1.657
		c0.544,0.124,1.178-0.303,1.811,0.564c-0.447,1.674,0.456,3.337,0.943,4.973c-0.929,0.944-2.009-0.076-2.648,0.845
		c0.362,1.042-0.898,1.438-0.756,2.462c0.71,0.539,1.758-0.34,2.338,0.527c0.097,0.544,0.179,0.994,0.265,1.471
		c1.203,0.16,2.319,0.469,3.389-0.249c-0.504-1.015-1.688-1.381-1.796-2.675c0.447-1.052,0.913-2.051,2.179-1.918
		c1.152,0.658-0.068,2.261,0.993,3.014c0.279-0.685,0.556-1.36,0.821-2.012c0.499,0,0.938,0,1.379,0c0,0.832,0,1.663,0.001,2.495
		c-0.756,0.864-2.221,0.641-2.574,2.109c0.285,0.561,0.772,0.342,1.233,0.417c0.369,1.548,1.936,2.753,1.142,4.703
		c-1.617,1.044-1.463-0.631-1.886-1.627c-0.843,1.229-2.247,0.744-3.249,1.133c0,0.654,0,0.981,0,1.313
		c0.913,0.908,1.558-1.479,2.708,0.066c-1.474,2.408-0.789,5.277-0.97,8.006c0.948,0.57,0.965-0.635,1.961-0.546
		c0.761,0.232,1.64,0.877,1.666,2.409c-0.972,1.125-1.581,0.334-2.199-0.407c-0.932,0.887-1.864,1.803-2.692-0.195
		c-1.012,1.642-0.646,2.905,0.69,3.865c-1.174,1.319-1.106,2.812-1.404,4.068c-0.951,0.512-1.45-0.081-1.903-0.737
		c-0.726,0.341-0.579,0.948-0.464,1.498c0.314,0.609,0.802,0.386,1.247,0.44c1.172,1.054-0.264,2.905,0.908,3.98
		c0.884-0.721,0.104-1.91,0.39-2.405c0.606-0.738,1.037-0.57,1.456-0.499c1.356,1.694-0.641,2.892-0.565,4.326
		c1.269,1.933,2.198-1.455,3.391-0.156c0.764,1.35-0.69,3.647-3.273,5.171c0.338,0.84,1.919,1.592,0.089,2.613
		c-1.845,0.112-0.77-2.784-2.352-2.974c-0.605,0.741-1.342,1.129-2.249,0.937c-0.027-0.605-0.07-1.205-0.114-1.825
		c-1.243-0.181-2.322-0.393-3.718,0.252c1.505,0.505,2.341,1.897,3.832,1.573c-0.018,0.5-0.018,0.996-0.018,1.552
		c-0.579,0.3-1.179,0.61-1.802,0.932c0.47,0.527,0.887,0.995,1.302,1.461c0.983-0.521,1.316-2.231,3.101-1.823
		c-0.243,3.042-2.306,4.493-4.302,6.168c0.71,1.795,2.247,2.497,3.425,3.163c0.136,0.927-0.068,1.304-0.487,1.554
		c-1.138,0.646-1.434-1.944-2.705-0.788c-1.418,1.267,0.815,1.742,0.576,2.81c0.135,0.796-0.677,0.948-0.825,1.554
		c0.725,0.806,1.512,1.619,0.171,2.502c-0.442-0.177-0.771-0.201-0.942-0.397c-0.428-0.493,0.125-1.784-1.067-1.593
		c-0.125-1.026,0.259-2.034-0.358-3.002c-0.937,0-1.926,0-2.906,0c-0.348,1.639-2.001,2.903-0.85,4.822
		c1.011-1.123,0.922-3.049,2.051-3.88c1.677-0.221,0.758,1.65,2.063,2.06c0.324,1.525-1.04,2.447-1.239,3.826
		c-1.611,0.188-3.185,0.336-4.736-1.716c-0.213,2.433-0.771,4-1.382,5.544c-1.503,1.408-2.532-1.158-4.158-0.589
		c-0.369,1.657,0.609,4.122-1.646,4.815c-0.644,0.17-0.919-0.248-1.326-0.699c-0.81-0.485-1.042,1.015-2.083,0.839
		c-2.697-0.456-5.228,0.791-7.81,1.616c-1.643,0.524-3.497,0.271-5.255,0.269c-3.022-0.004-6.066,0.291-8.997-0.97
		c-1.729-0.744-3.501-1.354-5.426-1.068c-0.287,0.043-0.654-0.59-0.993-0.921c-0.849,0.29,0.073,2.191-1.826,1.907
		c-0.832-1.824-0.615-4.76-2.904-5.937c-1.594-0.53-0.566,2.738-2.421,1.949c-0.761-1.054-0.348-2.346-0.321-3.568
		c0.653-0.986,1.791,0.212,2.553-0.881c-0.836-1.127-2.626,0.263-3.149-1.438c-0.664,0.61-0.14,2.707-1.891,1.762
		c-1.435-1.441,1.461-2.055,0.509-3.44c-0.263-0.486-0.73-0.368-1.183-0.386c-0.514,1.065-0.821,2.318-1.873,2.925
		c-1.924-2.422-0.734-5.858-2.367-8.49c0.678-0.265,1.196-0.466,1.715-0.668c0.436-0.753,0.191-1.562,0.159-2.354
		c-0.472-0.718-0.723-0.021-0.933,0.247c-0.499,0.639-1.119,0.205-1.666,0.34c0.101-2.543-1.304-3.909-3.204-4.883
		c-0.446,0.366-0.825,1.251-1.715,0.856c-0.438-0.323-0.453-0.809-0.431-1.31c0.897-1.376,2.935-0.838,3.625-2.702
		c0.444-1.272,3.034-0.006,2.562-2.539c-0.8-0.688-1.591-0.492-2.504-0.146c0,0.877,0,1.799-0.059,2.685
		c-0.606-0.098-1.611,0.382-1.644-0.317c-0.108-2.337-2.135-1.615-2.955-2.636c-1.301-0.051-0.434,1.421-1.271,1.918
		c-0.216,0.141-0.618,0.162-1.144-0.201c-0.544-0.585,0.073-1.479-0.219-2.111c0.622-1.339,1.861-1.519,2.684-2.213
		c0.437-1.249-1.236-1.51-0.865-2.518c0.055-1.473,1.379-0.417,1.685-1.272c-0.179-0.719-1.141-1.055-0.758-2.116
		c1.129-1.018,2.222-0.805,3.116,0.558c0.567-0.856,0.642-1.723,0.044-1.901c-1.338-0.4-2.419-1.65-3.999-1.108
		c0-0.808,0-1.259,0-1.639c0.7-1.003,1.834,0.193,2.605-0.964c-1.012-0.829-2.186-0.209-3.229-0.521
		c-0.762-0.993-0.17-2.203-0.407-3.561c-0.208-1.008-3.025,0.441-1.743-2.016c-1.712-1.077-2.831,0.709-4.522,0.729
		c0.298-2.764,2.999-2.573,3.479-4.548c0.373-1.443-0.332-3.237,1.075-4.272c-0.094-1.291-1.326-1.976-0.91-3.263
		c0.545-0.125,1.182,0.307,1.641-0.331c0.254-0.542-0.018-1.325,0.678-1.68c0.637-0.163,1.42,0.362,1.822-0.114
		c-0.368-0.657-0.733-1.309-0.964-1.721c-1.279-0.597-1.693,1.572-2.925,0.646c-0.524-0.476-0.141-1.19-0.246-1.805
		c2.519-1.333,5.256-1.326,7.808-1.964c0.32,0.893-0.041,1.683,1.125,1.922c-0.187-1.302,0.286-2.521-0.417-4.107
		c-1.892,1.289-4.233,0.797-6.019,2.309c-1.576-1.839-3.333-0.879-4.755-1.167c-1.261,1.617-3.148,2.613-1.755,5.095
		c0.761-2.033,2.248-2.96,3.415-4.186c0.875,0.771,0.464,1.492,0.598,2.099c-1.589,0.64-1.096,1.934-0.493,2.857
		c0.477,0.732,0.465,1.395,0.487,2.146c-0.445,0-0.89,0-1.334,0c-0.776,0.392-0.096,1.666-0.966,2
		c-1.316,0.321-1.65-1.912-2.884-1.099c-0.419-1.342,0.183-1.862,0.753-2.396c-0.921-0.992-2.011-0.297-3.172-0.556
		c-0.467,1.865-1.658,3.119-2.802,4.139c-1.802-0.344-0.924-1.646-1.189-2.436c1.22-2.129,3.164-3.059,5.268-3.977
		c0.048-1.062,0.099-2.182,0.146-3.198c0.336-0.65,0.822-0.431,1.392-0.499c0.388-1.052,0.935-2.146,1.184-3.321
		c0.226-1.065-0.253-2.348,0.897-3.109c-0.729-1.164-2.381,0.136-2.941-1.405c-0.734,0.164-1.195,1.533-2.193,0.565
		c-0.385-0.724-0.16-1.524-0.104-2.302c1.535-1.575,2.579,0.838,4.339,0.528c-0.36-1.54-2.244-2.091-1.97-3.847
		c-0.528,0.338-0.974,0.622-1.505,0.961c-0.988-0.532-2.065-1.009-1.686-3.054c1.413,0,2.861,0,4.309,0
		c-0.316,2.313,1.542,2.835,2.152,3.842C49.436,140.652,50.29,138.708,51.587,139.23c0.323,1.347,2.199,1.735,2.053,2.42
		c-0.521,1.972-1.685,1.07-1.941,2.376c1.365,0.471,3.035-0.411,4.504,1.147c-0.828-1.503,0.566-1.741,0.701-2.63
		C54.886,141.954,54.281,138.61,51.587,139.23z M119.953,158.602c0.75,1.939,2.519,1.874,2.478,4.18
		c1.152-2.943,2.265-4.869,4.122-6.388C123.924,155.513,122.453,158.158,119.953,158.602z M57.203,167.505
		c-0.937-0.349-1.735-0.479-2.58-0.128c-0.211,0.574-0.283,1.363-0.661,1.652c-0.509,0.391-1.508,0.025-1.354,1.782
		c0.351,0.656,1.784,0.237,2.371,1.905c0.087-2.567,2.17-0.813,2.995-2.168c-0.793-0.312-1.309-0.513-1.741-0.683
		C55.844,168.736,56.508,168.25,57.203,167.505z M58.77,155.63c-1.033,1.715-2.486,1.418-3.161,2.596
		c-0.203,0.354-0.394,0.489,0.589,1.367c-0.161-0.443,0.052,0.144,0.397,1.097c0.404-1.937,1.874-1.019,2.174-2.003
		C58.77,157.904,58.77,157.25,58.77,155.63z M121.811,202.49c0.629-2.311-0.39-2.993-1.808-3.393
		c-0.618,0.557-0.678,1.119-0.414,1.757C120.271,201.327,121.24,201.239,121.811,202.49z M119.69,172.359
		c-0.043,1.232-0.582,2.448,0.007,3.635c0.614,0.343,1.117,0.267,1.546-0.322C119.658,175.103,120.808,173.29,119.69,172.359z
		 M58.37,189.201c0.49-0.839,1.784-1.216,1.166-2.74c-0.725-0.51-0.733,0.626-1.182,0.728c-0.452,0.104-1.118-0.308-1.202,0.646
		C57.56,188.292,57.961,188.742,58.37,189.201z M60.237,172.237c1.005-0.031,1.594-0.724,2.059-1.708
		c-0.907-0.466-1.696-0.562-2.467,0.016C59.587,171.187,59.631,171.753,60.237,172.237z M118.892,160.908
		c0.882,1.985,1.375,3.1,2.006,4.521C121.549,163.393,121.307,162.106,118.892,160.908z M52.612,146.213
		c-0.16,1.784,0.614,2.312,1.278,2.803c0.534-0.5,0.959-0.898,1.424-1.334C54.427,147.201,53.64,146.773,52.612,146.213z"/>
	<path fill-rule="evenodd" clip-rule="evenodd" d="M123.906,129.178c0.44,0,0.882,0,1.536,0c-0.157,1.801,1.458,2.47,1.921,3.385
		c0.225,1.09-0.14,1.396-0.581,1.883c-0.478,0.719,0.629,0.731,0.659,1.193c0.634,1.387-1.534,1.733-0.81,3.102
		c1.495,0.197,1.637-1.048,1.86-2.204c2.174-1.394,4.058,0.654,6.115,0.644c-0.323,2.39,2.333,3.694,1.592,6.602
		c-0.273,0.617-0.866,1.47-2.008,1.424c-1.424-1.326,0.406-1.945,0.421-2.979c-0.749-1.275-0.965-2.946-2.155-3.957
		c-1.061,0.291-0.09,2.021-1.44,2.267c0.695,0.869,1.326,1.657,1.715,2.146c0.455,2.143-1.995,0.838-1.691,2.5
		c-0.823,0-1.647,0-2.39,0c-0.244-0.83-0.409-1.391-0.589-2.003c-1.105,0.521-2.619-1.133-3.264,1.003
		c-1.46,0.448-2.062-0.892-2.915-1.766c-1.352,0.915-2.753,1.155-4.214,0.318c0-0.372,0-0.702,0-1.043
		c0.6-1.04,1.661-0.134,2.708-0.937c0.141-0.104-0.198-0.706-0.019-1.097c0.629-1.369-1.771-1.621-0.731-3.097
		c0.553-0.691,1.043-0.295,1.73,0.191c1.22,0.862,0.389,2.486,1.189,3.611c0.246-1.549,0.955-2.351,2.334-2.621
		c-1.489-0.752-3.047-1.32-2.759-3.563c0.617,0.025,0.915-0.308,0.893-1.001c0.873-0.124,1.257-0.896,1.705-1.6
		C123.874,131.014,123.852,130.113,123.906,129.178z"/>
	<path fill-rule="evenodd" clip-rule="evenodd" fill="#FFFFFF" d="M124.798,144.182c0.645-2.136,2.158-0.481,3.264-1.003
		c0.18,0.612,0.345,1.173,0.589,2.003c0.742,0,1.566,0,2.39,0c-0.064,0.938,0.509,0.939,1.106,1.019
		c0.447,0.06,0.777,0.372,0.677,0.982c0.111,0.606-0.298,1.356,0.299,1.815c0.746,0.572,0.593,1.391,0.593,2.186
		c-0.44,0-0.88,0-1.379,0c-0.266,0.651-0.542,1.327-0.821,2.012c-1.062-0.753,0.159-2.355-0.993-3.014
		c-1.266-0.133-1.731,0.866-2.179,1.918c0.108,1.294,1.292,1.66,1.796,2.675c-1.069,0.718-2.186,0.409-3.389,0.249
		c-0.086-0.477-0.168-0.927-0.265-1.471c-0.58-0.867-1.628,0.012-2.338-0.527c-0.143-1.024,1.118-1.42,0.756-2.462
		c0.64-0.921,1.72,0.1,2.648-0.845c-0.487-1.636-1.391-3.299-0.943-4.973C125.976,143.879,125.342,144.306,124.798,144.182z"/>
	<path fill-rule="evenodd" clip-rule="evenodd" d="M128.97,117.513c-1.784-2.43-3.468-2.893-5.029-3.761
		c-0.263-1.566,1.164-2.301,1.313-4.157c1.589,1.87,2.857,3.364,4.167,4.906c1.308-1.701,0.333-3.456,0.922-5.11
		c0.199-0.396,0.691-0.153,1.318-0.273c0.78,2.164-0.625,4.981,1.591,6.733c0.622,0.438,0.904-1.764,2.221,0.123
		c0.161,0.583,0.159,1.819-0.236,3.262c-1.848-0.211-2.963-1.331-3.748-3.084c-0.617,1.378-1.221,2.723-1.896,4.229
		c-1.058-0.584-2.042-1.127-3.003-1.657C126.377,117.309,127.008,116.879,128.97,117.513z"/>
	<path fill-rule="evenodd" clip-rule="evenodd" d="M49.845,102.998c-0.397-1.512,1.638-2.622,0.763-4.639
		c-1.251,0.65-2.522,1.311-3.767,1.957c-0.961-1.456-0.721-2.577,0.572-3.825c-1.048-0.916-2.077-1.816-2.818-2.465
		c-0.246-2.124,1.494-2.367,1.742-3.707c-0.269-1.177-1.428-2.1-0.845-3.672c0.877-0.494,1.845-1.04,2.727-1.538
		c1.417,0.582,0.519,1.761,0.774,2.699c-0.519,0.204-1.035,0.406-1.576,0.619c-0.272,0.778,0.729,0.828,0.676,1.431
		c0.411,1.318-1.847,1.63-0.986,2.66c0.262,2.152,2.293,2.625,2.162,4.494c0.714-0.046,0.975-1.236,1.836-0.833
		c1.458,1.948,1.773,4.2,1.296,6.818C51.593,102.998,50.752,102.998,49.845,102.998z"/>
	<path fill-rule="evenodd" clip-rule="evenodd" d="M50.783,117.176c0-0.497,0-0.995,0-1.511c-0.966-1.275-2.614,0.314-3.58-1.027
		c-0.17-2.117,2.468-1.285,2.554-3.145c-0.481-0.209-0.99-0.43-1.57-0.683c0-0.417,0-0.865,0-1.637c2.098,0,4.13,0,6.163,0
		c0.414,1.283-0.813,1.968-0.896,3.072c-0.131,0.926,1.193,1.062,0.887,2.099c-0.124,0.246-0.347,0.765-0.382,0.748
		C52.097,114.278,52.896,118.553,50.783,117.176z"/>
	<path fill-rule="evenodd" clip-rule="evenodd" d="M123.015,133.179c0.022,0.693-0.275,1.026-0.893,1.001
		c-0.542-0.122-1.172,0.298-1.843-0.605c1.009-2.4,1.793-5.074-0.259-7.723c0.684-0.669,1.214-1.188,1.89-1.85
		c1.598,0.929,3.22,1.874,4.674,2.721c0.014,2.629-2.684,0.285-2.678,2.455c-0.773-0.062-0.896,0.494-0.893,1.177
		C123.018,131.296,123.015,132.238,123.015,133.179z"/>
	<path fill-rule="evenodd" clip-rule="evenodd" d="M150.659,103.735c-0.036,0.468,0.135,1.003-0.633,1.508
		c-1.413-1.055-3.212-1.365-5.037-1.042c-1.718,0.304-2.843-0.898-4.137-1.702c-0.029-0.512,0.005-0.984,0.432-1.304
		c0.885-0.37,1.272,0.473,1.827,0.975c0.949-1.084,0.002-2.548,0.559-3.643c0.361-0.538,1.106-0.471,1.181-0.29
		c0.459,1.115,1.924,0.603,2.151,1.145c0.302,2.341-1.358,1.349-1.766,2.55C147.125,102.286,149.162,102.145,150.659,103.735z"/>
	<path fill-rule="evenodd" clip-rule="evenodd" d="M148.875,136.561c0,1.113,0,1.608,0,2.167c-0.58,0.298-1.183,0.607-1.807,0.928
		c0.463,0.519,0.878,0.984,1.294,1.451c0.618-0.268,0.874-1.428,1.96-0.696c0.367,0.83,0.848,1.914,1.307,2.954
		c-0.59,0.839-0.951,1.785-2.12,1.832c-0.95-0.702-0.827-2.585-2.188-3.015c-1.024-0.342-1.458,1.785-2.703,0.721
		c-0.664-0.815-0.073-1.383,0.463-1.965c0.174-0.898-1.261-1.335-0.414-2.583C146.03,138.289,147.432,137.651,148.875,136.561z"/>
	<path fill-rule="evenodd" clip-rule="evenodd" d="M138.141,160.648c-0.633-0.954-1.673-0.101-2.496-0.688
		c-0.051-0.425-0.104-0.874-0.161-1.347c2.14-1.262,3.724,0.146,5.35,1.173c0.116,0.793-0.169,1.314-0.736,1.647
		c0.444,1.448,1.369,1.659,2.569,1.827c1.14,0.16,2.131,1.001,1.49,2.995c-2.326-0.859-4.604-1.7-6.85-2.529
		C136.664,162.342,138.838,162.007,138.141,160.648z"/>
	<path fill-rule="evenodd" clip-rule="evenodd" d="M134.535,137.156c0.134-0.938-0.124-1.493,0.357-1.803
		c1.219-0.912,1.63,1.302,2.718,0.827c1.351-1.714,1.735-3.818,2.141-6.25c1.035,1.127,2.071,2.255,3.039,3.31
		c-0.704,1.517-1.776,0.59-2.503,1.075c-0.575,1.556-1.406,3.014-1.35,4.921C137.093,139.142,136.034,137.656,134.535,137.156z"/>
	<path fill-rule="evenodd" clip-rule="evenodd" d="M133.152,119.859c0.609,1.388,1.087,2.474,1.543,3.512
		c-0.614,0.825-0.963,1.79-2.603,1.83c-0.612,0.027,0.175-1.377-0.396-1.797c-1.596,0.608-3.183,1.215-4.748,1.813
		c-1.094-1.881,1.224-2.478,0.858-3.916c0.876-0.467,1.337,0.207,1.789,0.762C130.666,121.4,131.72,120.747,133.152,119.859z"/>
	<path fill-rule="evenodd" clip-rule="evenodd" d="M53.389,180.788c0,0.388,0,1.027,0,1.918c-1.915,0.409-2.399,3.692-5.115,3.401
		c0-1.469,0-2.915,0-4.609c0.654-0.825,1.75-0.099,2.703-0.302C51.726,181.036,51.834,179.265,53.389,180.788z"/>
	<path fill-rule="evenodd" clip-rule="evenodd" d="M137.282,122.177c-0.151-1.032,0.146-1.874,0.852-2.525
		c-0.335-0.86-1.502-0.013-1.72-1.119c-0.262-1.211,0.797-1.563,1.213-2.225c1.646,0,3.227,0,4.877,0
		c0.04,0.572,0.071,1.02,0.099,1.41c-0.648,0.849-1.442,0.274-2.212,0.495c-0.564,1.278-1.163,2.629-1.752,3.964
		C138.163,122.177,137.723,122.177,137.282,122.177z"/>
	<path fill-rule="evenodd" clip-rule="evenodd" d="M49.406,80.16c-1.076,0.177-2.036,0.028-2.775-1.059
		c-1.191,0.164-2.127,1.723-4.134,0.557c0.127,0.082,0.302-0.455,0.225-1.161c1.259-0.408,2.667-0.496,3.743-1.499
		c0.452,0.417,0.78,0.717,1.129,1.039c1.025-0.098,0.095-1.503,1.008-1.831c1.184-0.361,1.579,0.845,2.185,1.653
		C50.907,79.106,49.922,79.464,49.406,80.16z"/>
	<path fill-rule="evenodd" clip-rule="evenodd" d="M158.229,111.175c-0.878,0.342-1.251-0.523-1.803-0.972
		c-0.728,1.038-0.671,2.847-2.324,2.972c-1.32-0.018-0.397-1.671-1.294-2.187c-0.682-0.392-1.485-1.107-1.259-2.314
		c0.23-0.167,0.461-0.334,0.72-0.521c1.196-0.014,1.517,1.347,2.352,1.933c0.906-0.231,0.104-1.54,1.345-1.944
		c0.896-0.037,1.652,1.23,2.69,1.525C158.729,110.416,158.628,110.859,158.229,111.175z"/>
	<path fill-rule="evenodd" clip-rule="evenodd" d="M164.062,55.397c-0.337,1.425-2.552,0.763-2.804,2.848
		c-0.164,1.352-1.842,1.462-3.035,2.088c0.024-1.546-1.765-2.174-1.314-3.558c0.438-0.839,0.93-0.52,1.285-0.623
		c0.666,0.388,0.343,1.191,0.66,1.703c0.208,0.383,0.387,0.334,0.628-0.078c0.882-1.506,1.844-2.965,3.428-3.583
		C163.468,53.976,164.062,54.242,164.062,55.397z"/>
	<path fill-rule="evenodd" clip-rule="evenodd" d="M135.499,166.187c1.249,0.495,1.938-1.314,3.183-0.955
		c0.905,0.957-0.028,2.219,0.495,3.104c-0.771,1.313-2.222,0.8-2.6,2.015c-1.476-0.749-2.182-1.64-1.97-3.164
		C135.224,167.212,135.521,166.879,135.499,166.187z"/>
	<path fill-rule="evenodd" clip-rule="evenodd" d="M147.983,95.047c-0.703,0.057-1.124,0.057-1.533,0.13
		c-1.282,0.23-1.579-1.919-2.878-1.104c-0.234-1.973,1.389-2.519,1.072-4.447c1.701,0.977,1.745,3.135,3.339,2.95
		C147.983,93.345,147.983,93.996,147.983,95.047z"/>
	<path fill-rule="evenodd" clip-rule="evenodd" d="M38.258,106.424c0.757-0.222,1.159-0.34,1.755-0.514
		c0.038-0.716,0.078-1.502,0.125-2.386c1.071-0.56,2.181-0.425,3.281-0.176c0.09,0.388,0.306,0.782,0.208,0.974
		c-1.113,2.163-2.785,3.419-4.728,3.882C38.102,107.694,38.361,107.136,38.258,106.424z"/>
	<path fill-rule="evenodd" clip-rule="evenodd" d="M158.458,104.925c1.001,0.249,1.406,0.35,1.765,0.438
		c0.399,0.71,0.331,1.278-0.167,1.779c-1.287,0.299-1.871-1.367-3.424-1.321c1.024-1.762,1.362-3.569,1.129-5.379
		c1.021-0.332,1.784-0.567,1.801,0.729C159.578,102.426,159.93,103.817,158.458,104.925z"/>
	<path fill-rule="evenodd" clip-rule="evenodd" d="M132.929,85.236c-0.092,1.135-0.154,1.924-0.224,2.792
		c-0.515,0.04-0.917,0.071-1.296,0.102c-0.718-1.118-0.227-2.308-0.377-3.464c1.58-0.893,3.169-1.791,4.65-2.626
		c0.588,0.409,0.808,0.786,0.621,1.585C135.257,84.17,134.348,85.411,132.929,85.236z"/>
	<path fill-rule="evenodd" clip-rule="evenodd" d="M41.42,114.052c1.078-2.051,1.347-3.989,2.796-4.877
		c1.351-0.024,1.431,1.27,2.465,1.557C45.486,113.205,43.933,113.971,41.42,114.052z"/>
	<path fill-rule="evenodd" clip-rule="evenodd" d="M131.851,95.308c1.312,1.995,0.899,3.269,0.885,4.831
		c-1.605,0.139-3.402-0.366-4.495,1.211c-0.665-0.455-0.831-0.855-0.727-1.639C128.938,98.439,131.389,98.497,131.851,95.308z"/>
	<path fill-rule="evenodd" clip-rule="evenodd" d="M142.919,128.193c1.858-0.312,3.767,0.084,5.288,2.07
		c-1.569,2.06-2.684,0.25-3.891-0.088c-0.873-0.109-1.076,1.9-2.272,0.765C140.896,129.775,142.525,129.158,142.919,128.193z"/>
	<path fill-rule="evenodd" clip-rule="evenodd" d="M140.257,153.332c1.77,0,2.762,0,3.849,0c0.89,0.99,0.103,1.641-0.571,2.292
		c0.437,0.769,1.645,1.29,0.399,2.592C141.601,158.037,141.73,155.473,140.257,153.332z"/>
	<path fill-rule="evenodd" clip-rule="evenodd" d="M19.697,61.08c-0.819,0-1.215,0-1.761,0c0-1.823,0-3.582,0-5.5
		c0.558-0.495,0.907-1.906,2.604-1.083C19.656,56.515,19.279,58.724,19.697,61.08z"/>
	<path fill-rule="evenodd" clip-rule="evenodd" d="M133.715,151.184c0-0.795,0.153-1.613-0.593-2.186
		c-0.597-0.459-0.188-1.209-0.299-1.815c0.44,0,0.881,0,1.301,0c0.636,0.369,0.379,1.144,0.614,1.68
		c1.042,0.685,2.269,0.086,3.352,0.394c0,0.723,0,1.17,0,1.928C136.587,151.184,135.15,151.184,133.715,151.184z"/>
	<path fill-rule="evenodd" clip-rule="evenodd" d="M147.453,156.44c0.129-1.698-1.461-2.279-1.253-3.715
		c0.4-0.629,0.911-0.682,1.493-0.372c0.193,0.584,0.387,1.16,0.574,1.727c1.071-0.144,0.24-2.512,1.897-1.882
		c0.944,0.714,0.393,1.722,0.37,2.624C149.654,155.285,148.784,155.742,147.453,156.44z"/>
	<path fill-rule="evenodd" clip-rule="evenodd" d="M35.62,103.655c1.046-0.793,1.521-2.485,3.045-2.54
		c1.274,1.381,0.133,2.2-0.607,2.747c-1.139,0.842-0.237,2.229-0.995,3.209c-0.323,0-0.725,0-1.129,0
		C35.326,105.968,35.749,104.789,35.62,103.655z"/>
	<path fill-rule="evenodd" clip-rule="evenodd" d="M135.499,166.187c0.022,0.692-0.275,1.025-0.892,1
		c-1.253-0.512-1.941,1.345-3.185,0.944c-0.716-0.632-0.242-1.533-0.462-2.677c1.486-0.036,2.808-0.745,3.981-1.341
		C135.778,164.852,135.385,165.573,135.499,166.187z"/>
	<path fill-rule="evenodd" clip-rule="evenodd" d="M142.633,128.178c-1.112,0-2.225,0-3.255,0c-0.434-0.99-0.592-1.747,0.402-1.975
		c0.583-0.134,1.128-0.13,1.068-1.025c1.113,0,2.225,0,3.256,0c0.433,0.99,0.591,1.747-0.402,1.975
		C143.119,127.287,142.573,127.283,142.633,128.178z"/>
	<path fill-rule="evenodd" clip-rule="evenodd" d="M60.695,201.958c-0.436,1.357-0.936,2.273-2.479,2.236
		c-0.467-1.763-0.165-3.874-1.374-5.386c0.905-0.807,1.827-0.932,1.89,0.059C58.831,200.41,60.178,200.603,60.695,201.958z"/>
	<path fill-rule="evenodd" clip-rule="evenodd" d="M139.497,115.162c-1.331,0.097-1.641-0.975-2.211-1.639
		c-0.028-0.516,0.059-0.93,0.404-1.331c1.017-1.184,2.306-1.65,3.445-2.083c0.709,0.477,0.585,1.005,0.604,1.452
		c-0.283,0.793-0.983,0.503-1.486,0.766C139.412,113.035,140.502,114.316,139.497,115.162z"/>
	<path fill-rule="evenodd" clip-rule="evenodd" d="M143.696,67.043c-0.266-1.496-0.318-2.736,0.143-3.975
		c1.937,0.124,2.325,2.776,4.309,2.249c-0.49,2.674-1.362,2.073-2.342,0.903C145.216,66.59,144.868,67.551,143.696,67.043z"/>
	<path fill-rule="evenodd" clip-rule="evenodd" d="M138.145,106.94c0.109,3.808-2.882,2.768-3.583,4.581
		c-1.308-1.137-0.517-2.14-1.311-3.569C135.3,108.638,136.352,107.359,138.145,106.94z"/>
	<path fill-rule="evenodd" clip-rule="evenodd" d="M160.353,63.743c0.213,2.525-1.725,3.578-0.023,6.229
		c-2.154-1.443-2.562-2.04-3.52-4.264C157.851,65.131,158.893,64.552,160.353,63.743z"/>
	<path fill-rule="evenodd" clip-rule="evenodd" d="M137.282,125.178c0.121-1.534-1.423-0.55-1.761-1.685
		c0.018-0.191,0.058-0.623,0.121-1.316c0.587,0,1.112,0,1.64,0c-0.102,0.62,0.236,0.945,0.69,0.98
		c0.858,0.067,1.725,0.02,2.407,0.02c0.737,0.681,0.359,1.391,0.469,2.001C139.659,125.178,138.471,125.178,137.282,125.178z"/>
	<path fill-rule="evenodd" clip-rule="evenodd" d="M42.403,164.054c0.31,1.914,1.271,3.304,3.025,3.427
		c0.007,0.83,0.053,1.33-0.463,1.693c-2.018-0.093-3.002-1.835-3.954-3.508C40.75,165.208,40.833,164.354,42.403,164.054z"/>
	<path fill-rule="evenodd" clip-rule="evenodd" d="M35.786,114.215c1.681-0.244,2.172,1.565,3.787,1.231
		c-0.836,2.29-2.644,1.672-3.333,3.268C35.337,116.828,35.671,115.5,35.786,114.215z"/>
	<path fill-rule="evenodd" clip-rule="evenodd" d="M150.766,113.582c-2.301,2.214-1.56-2.81-3.381-1.572
		c-0.453-0.888-0.444-1.771,0.043-2.763c0.347,0.022,0.864-0.124,1.109,0.102C149.744,110.46,150.33,112.002,150.766,113.582z"/>
	<path fill-rule="evenodd" clip-rule="evenodd" d="M178.159,103.363c0.55-1.126,1.101-2.252,1.805-3.69
		c1.305,1.173,1.35,2.642,2.033,3.92c-1.144,1.127-2.385,0.213-3.485,0.669C178.395,103.962,178.276,103.663,178.159,103.363z"/>
	<path fill-rule="evenodd" clip-rule="evenodd" d="M45.544,136.163c0-1.902,0-3.823,0-5.826c0.497-0.058,0.893-0.104,1.483-0.173
		c0,1.949,0,3.819,0,5.74C46.593,136.475,45.969,136.047,45.544,136.163z"/>
	<path fill-rule="evenodd" clip-rule="evenodd" d="M130.147,131.179c0.433,0,0.865,0,1.352,0c0.818,1.09,0.303,2.38,0.388,3.667
		c-1.079,0.563-2.169,0.352-3.364,0.167c-0.065-0.464-0.128-0.906-0.174-1.229c0.396-0.974,1.503-0.183,1.799-1.378
		C130.147,132.148,130.147,131.664,130.147,131.179z"/>
	<path fill-rule="evenodd" clip-rule="evenodd" d="M141.821,139.104c1.556,0.892,2.291,2.1,1.227,4.288
		c-1.084-0.604-2.123-1.183-3.096-1.725C139.949,140.121,140.751,139.566,141.821,139.104z"/>
	<path fill-rule="evenodd" clip-rule="evenodd" d="M32.835,77.698c-1.599-0.972-2.605-1.583-3.763-2.288
		c0.816-1.694,2.266-1.503,3.309-2.465C33.363,74.296,32.844,75.653,32.835,77.698z"/>
	<path fill-rule="evenodd" clip-rule="evenodd" d="M20.569,24.513c-0.522-1.125-0.968-2.083-1.457-3.135
		c0.471-1.005,0.967-2.065,1.436-3.067c0.439,0.093,0.714,0.151,0.991,0.211c1.361,1.385-0.975,1.819-0.604,2.949
		C20.989,22.43,23.073,23.388,20.569,24.513z"/>
	<path fill-rule="evenodd" clip-rule="evenodd" d="M39.635,95.171c-0.581,0-1.163,0-1.719,0c-0.66,0.347-0.41,1.109-0.65,1.682
		c-0.479,0.501-0.979,0.484-1.421,0.078c-1.034-1.624,1.63-1.952,0.502-3.41c1.41-0.507,2.494-0.507,3.531-0.134
		C40.215,94.136,40.147,94.702,39.635,95.171z"/>
	<path fill-rule="evenodd" clip-rule="evenodd" d="M151.699,86.256c0.547,0,0.945,0,1.486,0c0,1.975,0,3.861,0,5.828
		c-0.548,0-0.947,0-1.486,0C151.699,90.108,151.699,88.222,151.699,86.256z"/>
	<path fill-rule="evenodd" clip-rule="evenodd" d="M32.056,51.161c0-1.162,0-2.326,0-3.49c0.76-0.56,1.095-2.16,2.701-1.107
		c-0.044,1.6-1.597,2.835-0.903,4.597C32.945,51.161,32.5,51.161,32.056,51.161z"/>
	<path fill-rule="evenodd" clip-rule="evenodd" d="M51.512,180.21c-2.706,0.254-2.39-2.748-3.574-4.122
		c0.67-1.135,1.827-1.099,1.791-0.471C49.614,177.671,52.579,177.899,51.512,180.21z"/>
	<path fill-rule="evenodd" clip-rule="evenodd" d="M47.383,125.483c-0.499,2.596-1.401,1.427-2.838,0.902
		c-0.168,0.011-0.858,1.78-1.792,0.225c-0.263-1.243,0.858-1.576,1.195-2.36C45.523,123.841,45.939,125.898,47.383,125.483z"/>
	<path fill-rule="evenodd" clip-rule="evenodd" d="M182.415,7.862c0.85,2.292-1.071,2.876-0.963,4.29
		c-0.333,0-0.758,0.137-0.885-0.023c-0.538-0.678-1.516-1.048-1.351-2.485C180.155,9.121,181.194,8.542,182.415,7.862z"/>
	<path fill-rule="evenodd" clip-rule="evenodd" d="M23.261,2.734c-1.307,0.789-1.775,0.102-2.269-0.498
		c-0.711,0.245-1.119,1.865-2.178,0.562c-0.567-1.484,0.681-1.88,1.42-2.797C21.21,0.866,22.913,0.641,23.261,2.734z"/>
	<path fill-rule="evenodd" clip-rule="evenodd" d="M139.555,100.23c-0.985-1.065-0.405-1.782,0.338-2.437
		c-0.264-0.727-1.179-1.087-0.825-2.079c0.27-0.441,0.634-0.638,1.267-0.474c1.049,0.543,0.315,2.372,1.556,2.672
		C141.322,99.407,140.671,100.168,139.555,100.23z"/>
	<path fill-rule="evenodd" clip-rule="evenodd" d="M17.076,121.738c-1.006,1.006-0.317,3.243-2.368,3.505
		c-1.041-1.238-0.14-2.541-0.549-3.616C15.181,121.018,15.973,120.979,17.076,121.738z"/>
	<path fill-rule="evenodd" clip-rule="evenodd" d="M183.741,51.079c-1.086,0-1.774,0-2.8,0c0.141-1.804,0.834-3.018,1.907-4.221
		C184.115,48.125,183.428,49.497,183.741,51.079z"/>
	<path fill-rule="evenodd" clip-rule="evenodd" d="M38.514,122.264c0.472,0,0.87,0,1.348,0c0.356,1.296,0.34,2.517,0.004,3.827
		c-0.473,0-0.871,0-1.349,0C38.162,124.794,38.178,123.574,38.514,122.264z"/>
	<path fill-rule="evenodd" clip-rule="evenodd" d="M27.579,52.754c0.515,1.41-1.39,1.999-1.292,3.422
		c-0.454-0.082-0.938,0.2-1.346-0.606c-0.515-1.41,1.39-1.999,1.293-3.422C26.687,52.229,27.17,51.947,27.579,52.754z"/>
	<path fill-rule="evenodd" clip-rule="evenodd" d="M148.754,51.094c0.892-0.126,1.269,0.017,1.546,0.463
		c0.161,1.35-1.185,2.032-1.145,3.284c-0.631,0.324-1.134,0.261-1.539-0.33C147.451,53.147,148.798,52.465,148.754,51.094z"/>
	<path fill-rule="evenodd" clip-rule="evenodd" d="M141.956,120.263c0.473,0,0.87,0,1.348,0c0.356,1.297,0.341,2.518,0.005,3.827
		c-0.472,0-0.87,0-1.348,0C141.604,122.794,141.62,121.574,141.956,120.263z"/>
	<path fill-rule="evenodd" clip-rule="evenodd" d="M32.056,51.161c-0.745,3.159-0.972,3.506-2.53,3.764
		c-0.699-1.694,1.328-2.324,1.167-3.764C31.168,51.161,31.612,51.161,32.056,51.161z"/>
	<path fill-rule="evenodd" clip-rule="evenodd" d="M176.548,58.596c-0.11,0.49,0.23,1.055-0.353,1.379
		c-1.451,0.752-1.964-1.458-3.253-1.311c0.111-0.49-0.229-1.055,0.354-1.379C174.747,56.533,175.26,58.742,176.548,58.596z"/>
	<path fill-rule="evenodd" clip-rule="evenodd" d="M136.354,129.475c0.069,0.981-0.002,1.432-0.566,1.727
		c-1.096,0.182-1.674-1.399-2.886-1.346c0-0.473,0-0.913,0-1.344C134.441,127.374,134.986,129.909,136.354,129.475z"/>
	<path fill-rule="evenodd" clip-rule="evenodd" d="M13.019,48.435c0.887-0.171,1.156-0.223,1.635-0.315
		c0.489,1.109,1.005,2.278,1.567,3.55c-0.556,0.246-0.928,0.411-1.484,0.657C14.191,51.093,13.676,49.924,13.019,48.435z"/>
	<path fill-rule="evenodd" clip-rule="evenodd" d="M152.406,130.475c0.068,0.981-0.002,1.432-0.567,1.727
		c-1.095,0.182-1.673-1.399-2.885-1.346c0-0.472,0-0.912,0-1.343C150.493,128.374,151.038,130.909,152.406,130.475z"/>
	<path fill-rule="evenodd" clip-rule="evenodd" d="M28.917,134.071c0.088-1.301-1.816-1.89-1.301-3.299
		c0.409-0.807,0.892-0.524,1.325-0.603c0.467,1.064,0.938,2.134,1.368,3.112C30.139,133.901,29.945,134.299,28.917,134.071z"/>
	<path fill-rule="evenodd" clip-rule="evenodd" d="M167.714,43.557c-0.882,0.93-1.643,0.436-2.348,0.611
		c-0.715-0.991-0.685-1.987-0.017-3.034C166.748,41.112,167.272,42.14,167.714,43.557z"/>
	<path fill-rule="evenodd" clip-rule="evenodd" d="M154.303,42.918c0-0.531,0-0.977,0-1.512c1.155-0.4,2.244-0.382,3.412-0.006
		c0,0.53,0,0.977,0,1.512C156.56,43.312,155.471,43.294,154.303,42.918z"/>
	<path fill-rule="evenodd" clip-rule="evenodd" d="M168.411,131.089c0,0.851,0,1.296,0,1.766c-1.137,0.698-2.23,0.088-3.401,0.414
		c0-0.851,0-1.296,0-1.766C166.145,130.805,167.239,131.416,168.411,131.089z"/>
	<path fill-rule="evenodd" clip-rule="evenodd" d="M28.753,39.001c1.087,0.955,0.3,1.956,0.702,2.688
		c-1.017,0.646-1.806,0.646-2.697,0.08C26.509,39.908,27.677,39.49,28.753,39.001z"/>
	<path fill-rule="evenodd" clip-rule="evenodd" d="M148.875,137.18c0-0.591,0-1.182,0-1.615c1.585-1.174,2.234,1.572,3.566,0.615
		c0,0.591,0,1.182,0,1.615C150.856,138.97,150.207,136.223,148.875,137.18z"/>
	<path fill-rule="evenodd" clip-rule="evenodd" d="M52.721,195.287c0.553,0,0.95,0,1.474,0c0,1.314,0,2.537,0,3.815
		c-0.553,0-0.95,0-1.474,0C52.721,197.787,52.721,196.564,52.721,195.287z"/>
	<path fill-rule="evenodd" clip-rule="evenodd" d="M175.882,37.359c0.543,0.446,0.737,0.836,0.542,1.714
		c-0.828,0.461-1.866,1.04-2.816,1.569c-0.542-0.446-0.736-0.836-0.541-1.714C173.895,38.468,174.932,37.889,175.882,37.359z"/>
	<path fill-rule="evenodd" clip-rule="evenodd" d="M177.701,31.136c-0.26-0.046-0.738,0.229-1.063-0.378
		c-0.415-0.849,0.132-1.364,0.621-1.958c0.362-0.441-0.096-1.322,0.753-1.624c0.26,0.046,0.739-0.229,1.063,0.378
		c0.416,0.849-0.131,1.364-0.62,1.958C178.092,29.954,178.551,30.834,177.701,31.136z"/>
	<path fill-rule="evenodd" clip-rule="evenodd" d="M38.279,146.717c0.111-0.491-0.23-1.056,0.353-1.38
		c1.451-0.752,1.964,1.458,3.252,1.312c-0.111,0.49,0.229,1.055-0.353,1.379C40.081,148.78,39.568,146.571,38.279,146.717z"/>
	<path fill-rule="evenodd" clip-rule="evenodd" d="M148.957,97.261c0-0.851,0-1.296,0-1.765c1.137-0.7,2.23-0.089,3.401-0.416
		c0,0.852,0,1.297,0,1.766C151.223,97.545,150.129,96.935,148.957,97.261z"/>
	<path fill-rule="evenodd" clip-rule="evenodd" d="M165.708,13.336c-1.356,2.039-2.696,1.109-3.769,1.226
		c-0.573-0.348-0.275-0.91-0.417-1.465C162.762,12.476,163.951,12.49,165.708,13.336z"/>
	<path fill-rule="evenodd" clip-rule="evenodd" d="M34.154,99.805c-1.817-1.521-0.988-3.023-1.093-4.227
		c0.31-0.643,0.811-0.308,1.307-0.469C34.922,96.501,34.908,97.835,34.154,99.805z"/>
	<path fill-rule="evenodd" clip-rule="evenodd" d="M168.277,101.085c-0.473,0-0.869,0-1.348,0c-0.355-1.296-0.34-2.518-0.004-3.827
		c0.472,0,0.869,0,1.348,0C168.63,98.554,168.614,99.776,168.277,101.085z"/>
	<path fill-rule="evenodd" clip-rule="evenodd" d="M154.298,102.318c0-1.599,0-2.704,0-3.655c0.368-0.72,0.864-0.395,1.295-0.529
		c0.732,1.191,0.371,2.46,0.317,3.6C155.568,102.401,155.072,102.076,154.298,102.318z"/>
	<path fill-rule="evenodd" clip-rule="evenodd" d="M29.073,91.279c-0.975-0.866-0.506-1.842-0.468-2.748
		c0.778-0.797,1.586-0.019,2.458-0.549C31.342,90.339,30.278,90.875,29.073,91.279z"/>
	<path fill-rule="evenodd" clip-rule="evenodd" d="M28.705,82.255c0.473,0,0.87,0,1.349,0c0.356,1.296,0.34,2.517,0.004,3.827
		c-0.473,0-0.87,0-1.348,0C28.353,84.786,28.369,83.565,28.705,82.255z"/>
	<path fill-rule="evenodd" clip-rule="evenodd" d="M47.216,105.666c-0.288,0.434-0.673,0.588-1.36,0.433
		c-0.441-1.033-0.949-2.221-1.454-3.403c0.473-0.257,0.72-0.39,1.286-0.697C46.418,103.048,47.317,104.026,47.216,105.666z"/>
	<path fill-rule="evenodd" clip-rule="evenodd" d="M163.188,83.168c0.437,0.075,0.912-0.193,1.346,0.575
		c0.58,1.43-1.435,2.001-1.277,3.446c-0.438-0.074-0.912,0.193-1.346-0.574C161.332,85.185,163.347,84.613,163.188,83.168z"/>
	<path fill-rule="evenodd" clip-rule="evenodd" d="M129.256,105.173c0-0.498,0-0.996,0-1.538c0.968-0.535,1.95-1.078,2.802-1.549
		c0.871,0.421,0.989,1.463,0.65,1.605C131.56,104.183,130.684,105.54,129.256,105.173z"/>
	<path fill-rule="evenodd" clip-rule="evenodd" d="M174.222,103.199c0.7,0.472,0.454,1.01,0.524,1.508
		c-1.28-0.146-1.793,2.063-3.063,1.44c-0.7-0.471-0.455-1.009-0.524-1.507C172.438,104.786,172.95,102.576,174.222,103.199z"/>
	<path fill-rule="evenodd" clip-rule="evenodd" d="M179.414,80.254c0.479,0,0.876,0,1.348,0c0.336,1.31,0.352,2.531-0.004,3.827
		c-0.479,0-0.875,0-1.348,0C179.074,82.771,179.059,81.551,179.414,80.254z"/>
	<path fill-rule="evenodd" clip-rule="evenodd" d="M139.875,175.098c0,0.852,0,1.297,0,1.765c-1.137,0.704-2.23,0.089-3.402,0.418
		c0-0.853,0-1.298,0-1.765C137.609,174.812,138.703,175.427,139.875,175.098z"/>
	<path fill-rule="evenodd" clip-rule="evenodd" d="M144.291,77.892c0.397-0.608,0.744-0.826,1.526-0.607
		c0.412,0.929,0.929,2.093,1.399,3.159c-0.397,0.608-0.744,0.827-1.527,0.607C145.278,80.122,144.762,78.958,144.291,77.892z"/>
	<path fill-rule="evenodd" clip-rule="evenodd" d="M42.193,180.542c1.355-2.038,2.695-1.108,3.768-1.226
		c0.572,0.348,0.275,0.909,0.417,1.465C45.138,181.404,43.949,181.389,42.193,180.542z"/>
	<path fill-rule="evenodd" clip-rule="evenodd" d="M168.576,74.256c0-0.851,0-1.296,0-1.763c1.136-0.704,2.229-0.09,3.401-0.417
		c0,0.851,0,1.296,0,1.763C170.842,74.543,169.747,73.929,168.576,74.256z"/>
	<path fill-rule="evenodd" clip-rule="evenodd" d="M175.042,15.656c-1.359,0-2.345,0-3.2,0c-0.618-0.418-0.37-0.962-0.437-1.436
		c1.014-1.098,2.194-0.077,3.007-0.495C175.167,14.236,174.919,14.78,175.042,15.656z"/>
	<path fill-rule="evenodd" clip-rule="evenodd" d="M57.18,109.267c0.552,0,0.95,0,1.474,0c0,1.314,0,2.537,0,3.815
		c-0.553,0-0.95,0-1.474,0C57.18,111.767,57.18,110.544,57.18,109.267z"/>
	<path fill-rule="evenodd" clip-rule="evenodd" d="M137.421,181.128c-0.23,1.019,0.11,1.583,0.038,1.618
		c-2.015,1.202-2.328-1.617-3.884-0.493c0.231-1.019-0.109-1.584-0.037-1.619C135.553,179.432,135.866,182.252,137.421,181.128z"/>
	<path fill-rule="evenodd" clip-rule="evenodd" d="M168.036,70.168c-1.205,0.187-1.83-1.284-2.938-1.281
		c-0.296-0.695-0.24-1.26,0.286-1.725c1.205-0.187,1.83,1.285,2.938,1.282C168.617,69.138,168.563,69.703,168.036,70.168z"/>
	<path fill-rule="evenodd" clip-rule="evenodd" d="M17.48,117.285c-0.976-0.866-0.506-1.842-0.468-2.748
		c0.778-0.797,1.586-0.019,2.458-0.549C19.75,116.345,18.686,116.882,17.48,117.285z"/>
	<path fill-rule="evenodd" clip-rule="evenodd" d="M167.024,65.797c-1.817-1.521-0.988-3.023-1.094-4.23
		c0.314-0.62,0.805-0.335,1.321-0.428C167.792,62.494,167.778,63.828,167.024,65.797z"/>
	<path fill-rule="evenodd" clip-rule="evenodd" d="M25.25,60.516c1.356-2.039,2.696-1.109,3.768-1.226
		c0.572,0.348,0.275,0.91,0.417,1.465C28.195,61.376,27.005,61.361,25.25,60.516z"/>
	<path fill-rule="evenodd" clip-rule="evenodd" d="M143.62,182.536c-0.771,1.095-1.641,0.567-2.445,0.525
		c-0.524-0.878-0.44-1.767,0.003-2.831C142.783,179.991,143.262,181.185,143.62,182.536z"/>
	<path fill-rule="evenodd" clip-rule="evenodd" d="M146.602,117.128c1.626,0.189,2.154,1.166,2.34,2.448
		c-0.777,1.117-1.671,0.227-2.322,0.684C146.043,119.119,146.043,118.234,146.602,117.128z"/>
	<path fill-rule="evenodd" clip-rule="evenodd" d="M161.442,119.268c0-0.853,0-1.298,0-1.761c1.136-0.717,2.229-0.088,3.401-0.423
		c0,0.853,0,1.298,0,1.761C163.708,119.562,162.613,118.933,161.442,119.268z"/>
	<path fill-rule="evenodd" clip-rule="evenodd" d="M46.812,187.448c-1.623-0.673-2.398-1.384-2.254-2.86
		c0.369-0.17,0.69-0.456,0.848-0.369C46.49,184.819,47.755,185.377,46.812,187.448z"/>
	<path fill-rule="evenodd" clip-rule="evenodd" d="M41.009,166.568c-0.131,0.568,0.223,1.149-0.775,1.622
		c-1.19,0.038-1.853-0.891-1.958-2.477C39.531,164.251,40.104,166.028,41.009,166.568z"/>
	<path fill-rule="evenodd" clip-rule="evenodd" d="M160.878,95.664c-0.673,2.508-1.142,3.702-3.068,3.421
		C157.706,97.031,158.756,96.501,160.878,95.664z"/>
	<path fill-rule="evenodd" clip-rule="evenodd" d="M173.223,101.893c-1.584,0.558-1.988-0.181-2.506-0.714
		c-0.479-0.492-0.564-1.028-0.158-2.004C172.154,99.065,172.634,100.252,173.223,101.893z"/>
	<path fill-rule="evenodd" clip-rule="evenodd" d="M47.216,104.173c0-0.587,0-1.172,0-1.531c1.381-1.345,1.758,0.691,2.675,0.53
		c0,0.587,0,1.172,0,1.531C48.51,106.048,48.133,104.012,47.216,104.173z"/>
	<path fill-rule="evenodd" clip-rule="evenodd" d="M129.256,105.173c0.082,1.925-0.713,2.867-2.73,3.064
		C126.7,105.973,127.54,105.083,129.256,105.173z"/>
	<path fill-rule="evenodd" clip-rule="evenodd" d="M39.601,86.662c-0.673,2.507-1.142,3.702-3.068,3.421
		C36.429,88.029,37.479,87.5,39.601,86.662z"/>
	<path fill-rule="evenodd" clip-rule="evenodd" d="M160.519,54.415c-1.849-0.492-2.86-1.065-2.661-3.277
		C159.529,51.238,160.403,51.91,160.519,54.415z"/>
	<path fill-rule="evenodd" clip-rule="evenodd" d="M54.338,109.266c0.146-1.116-1.487-1.402-0.835-2.643
		c0.869-0.976,1.011-0.88,2.63,1.77C55.899,109.691,54.952,108.936,54.338,109.266z"/>
	<path fill-rule="evenodd" clip-rule="evenodd" d="M164.842,56.932c0.219,2.418-0.794,2.992-2.313,3.396
		C161.934,58.147,162.953,57.464,164.842,56.932z"/>
	<path fill-rule="evenodd" clip-rule="evenodd" d="M130.147,131.179c-1.613,0.245-2.352-0.76-2.756-2.332
		C129.432,128.225,129.432,128.225,130.147,131.179z"/>
	<path fill-rule="evenodd" clip-rule="evenodd" d="M41.322,133.334c-0.472-1.134-0.387-1.67,0.092-2.162
		c0.517-0.533,0.921-1.271,2.034-0.88C43.967,132.195,42.947,132.877,41.322,133.334z"/>
	<path fill-rule="evenodd" clip-rule="evenodd" d="M152.441,136.18c-0.081-1.925,0.714-2.867,2.732-3.064
		C154.998,135.38,154.157,136.271,152.441,136.18z"/>
	<path fill-rule="evenodd" clip-rule="evenodd" d="M182.4,21.111c-0.003-1.61,0.763-1.955,1.241-2.476
		c0.217-0.235,0.749-0.104,1.11-0.137c0.139,0.377,0.394,0.737,0.316,0.913C184.533,20.63,184.035,22.048,182.4,21.111z"/>
	<path fill-rule="evenodd" clip-rule="evenodd" d="M2.922,26.609C2.483,28.681,1.971,29.816,0,29.593
		C0.09,27.717,0.689,26.737,2.922,26.609z"/>
	<path fill-rule="evenodd" clip-rule="evenodd" d="M141.104,146.055c-2.199,0.321-2.668-0.873-3.107-2.51
		C139.988,142.754,140.525,144.014,141.104,146.055z"/>
	<path fill-rule="evenodd" clip-rule="evenodd" d="M25.214,70.255c0.39,0,0.786,0,1.142,0c0.73,0.945,0.043,1.841,0.51,2.818
		C25.021,72.712,25.021,72.712,25.214,70.255z"/>
	<path fill-rule="evenodd" clip-rule="evenodd" d="M38.378,71.837c0-0.437,0-0.881,0-1.28c0.842-0.818,1.642-0.053,2.512-0.569
		C40.569,72.055,40.569,72.055,38.378,71.837z"/>
	<path fill-rule="evenodd" clip-rule="evenodd" d="M176.6,48.777c0-0.408,0-0.853,0-1.252c0.877-0.526,1.671-0.562,2.515,0.018
		c0,0.408,0,0.853,0,1.252C178.236,49.322,177.443,49.358,176.6,48.777z"/>
	<path fill-rule="evenodd" clip-rule="evenodd" d="M165.738,28.539c0,0.408,0,0.853,0,1.252c-0.878,0.526-1.671,0.562-2.516-0.018
		c0-0.409,0-0.853,0-1.252C164.101,27.995,164.894,27.958,165.738,28.539z"/>
	<path fill-rule="evenodd" clip-rule="evenodd" d="M6.223,6.94C5.165,9.391,4.145,8.868,3.26,8.763
		c-0.521-0.332-0.268-0.88-0.332-1.332C3.817,6.296,4.714,7.201,6.223,6.94z"/>
	<path fill-rule="evenodd" clip-rule="evenodd" d="M55.316,204.34c0-1.265,0-2.039,0-2.666c0.375-0.688,0.857-0.413,1.265-0.484
		c0.801,0.795,0.402,1.755,0.308,2.637C56.58,204.421,56.087,204.099,55.316,204.34z"/>
	<path fill-rule="evenodd" clip-rule="evenodd" d="M19.247,70.792c0-0.59,0-1.035,0-1.443c0.844-0.58,1.637-0.544,2.586,0.025
		C21.906,71.938,20.347,70.706,19.247,70.792z"/>
	<path fill-rule="evenodd" clip-rule="evenodd" d="M39.927,80.078c-0.55,0-0.947,0-1.303,0c-0.47-0.984-0.502-1.874,0.015-2.821
		c0.364,0,0.761,0,1.288,0C39.927,78.237,39.927,79.128,39.927,80.078z"/>
	<path fill-rule="evenodd" clip-rule="evenodd" d="M40.007,179.569c0,0.398,0,0.844,0,1.242c-0.867,0.56-1.659,0.56-2.526,0
		c0-0.398,0-0.844,0-1.242C38.348,179.01,39.14,179.01,40.007,179.569z"/>
	<path fill-rule="evenodd" clip-rule="evenodd" d="M137.759,81.167c-0.323,0-0.613,0-0.906,0c-0.952-0.754-0.124-1.783-0.462-2.374
		c0.427-0.844,0.915-0.559,1.348-0.637C138.445,79.163,138.427,80.163,137.759,81.167z"/>
	<path fill-rule="evenodd" clip-rule="evenodd" d="M48.925,81.098c0,1.19,0,1.963,0,2.591c-0.375,0.688-0.857,0.413-1.265,0.484
		c-0.801-0.795-0.402-1.754-0.308-2.641C47.665,80.958,48.147,81.234,48.925,81.098z"/>
	<path fill-rule="evenodd" clip-rule="evenodd" d="M142.633,160.721c0-0.362,0-0.689,0-1.017c0.672-1.069,1.59-0.14,2.115-0.52
		c0.753,0.479,0.498,1.027,0.568,1.513C144.421,161.49,143.528,161.469,142.633,160.721z"/>
	<path fill-rule="evenodd" clip-rule="evenodd" d="M140.032,108.244c0-1.19,0-1.964,0-2.591c0.374-0.688,0.856-0.413,1.265-0.484
		c0.801,0.795,0.401,1.754,0.307,2.641C141.292,108.383,140.81,108.108,140.032,108.244z"/>
	<path fill-rule="evenodd" clip-rule="evenodd" d="M137.282,125.313c0,0.665,0,0.985,0,1.326c-0.631,0.963-1.512,0.434-2.285,0.478
		c-0.544-0.509-0.448-1.078-0.194-1.804C135.631,125.313,136.45,125.313,137.282,125.313z"/>
	<path fill-rule="evenodd" clip-rule="evenodd" d="M38.378,142.007c0-0.617,0-1.062,0-1.461c0.878-0.526,1.671-0.562,2.515,0.018
		c0,0.408,0,0.853,0,1.443C40.019,142.007,39.225,142.007,38.378,142.007z"/>
	<path fill-rule="evenodd" clip-rule="evenodd" d="M143.108,147.093c-0.289,0-0.686,0-0.953,0c-0.592-0.438-0.404-0.973-0.402-1.43
		c0.001-0.457-0.202-1.002,0.403-1.392c0.29,0,0.687,0,0.955,0c0.59,0.438,0.402,0.972,0.4,1.429
		C143.511,146.158,143.714,146.704,143.108,147.093z"/>
	<path fill-rule="evenodd" clip-rule="evenodd" fill="#FFFFFF" d="M49.902,154.178c-0.139-0.604,0.272-1.325-0.604-2.096
		c-1.167,1.226-2.654,2.152-3.415,4.186c-1.393-2.481,0.494-3.478,1.755-5.095c1.422,0.288,3.18-0.672,4.755,1.167
		c1.785-1.512,4.127-1.02,6.019-2.309c0.703,1.586,0.23,2.806,0.417,4.107c-1.166-0.239-0.805-1.029-1.125-1.922
		C55.153,152.855,52.416,152.848,49.902,154.178z"/>
	<path fill-rule="evenodd" clip-rule="evenodd" fill="#FFFFFF" d="M51.5,139.28c2.78-0.67,3.385,2.674,5.404,3.264
		c-0.135,0.889-1.529,1.127-0.701,2.63c-1.47-1.559-3.139-0.677-4.504-1.147c0.257-1.306,1.421-0.404,1.941-2.376
		C53.787,140.965,51.91,140.577,51.5,139.28z"/>
	<path fill-rule="evenodd" clip-rule="evenodd" fill="#FFFFFF" d="M119.953,158.602c2.5-0.444,3.971-3.089,6.6-2.208
		c-1.857,1.519-2.97,3.444-4.122,6.388C122.472,160.476,120.703,160.542,119.953,158.602z"/>
	<path fill-rule="evenodd" clip-rule="evenodd" fill="#FFFFFF" d="M57.203,167.505c-0.695,0.745-1.359,1.23-0.97,2.361
		c0.432,0.17,0.948,0.371,1.741,0.683c-0.824,1.354-2.908-0.399-2.995,2.168c-0.587-1.668-2.02-1.249-2.371-1.905
		c-0.153-1.757,0.845-1.392,1.354-1.782c0.377-0.289,0.45-1.078,0.661-1.652C55.468,167.026,56.267,167.157,57.203,167.505z"/>
	<path fill-rule="evenodd" clip-rule="evenodd" fill="#FFFFFF" d="M49.891,154.184c0.111,0.611-0.272,1.326,0.252,1.802
		c1.232,0.926,1.646-1.243,2.925-0.646c0.231,0.412,0.596,1.063,0.964,1.721c-0.402,0.477-1.185-0.049-1.822,0.114
		c-0.695,0.354-0.424,1.138-0.678,1.68c-0.459,0.638-1.096,0.206-1.641,0.331c-0.022-0.752-0.01-1.414-0.487-2.146
		C48.801,156.115,48.308,154.821,49.891,154.184z"/>
	<path fill-rule="evenodd" clip-rule="evenodd" fill="#FFFFFF" d="M121.252,208.368c-1.316-0.495-0.397-2.366-2.074-2.146
		c-1.129,0.831-1.04,2.757-2.051,3.88c-1.151-1.919,0.502-3.184,0.85-4.822c0.98,0,1.97,0,2.906,0
		C121.5,206.248,121.116,207.255,121.252,208.368z"/>
	<path fill-rule="evenodd" clip-rule="evenodd" fill="#FFFFFF" d="M58.77,155.63c0,1.62,0,2.273,0,3.057
		c-0.3,0.984-1.77,0.066-2.174,2.003c-0.346-0.953-0.558-1.54-0.397-1.097c-0.983-0.878-0.792-1.013-0.589-1.367
		C56.283,157.048,57.737,157.345,58.77,155.63z"/>
	<path fill-rule="evenodd" clip-rule="evenodd" fill="#FFFFFF" d="M58.926,193.12c0-0.849,0-1.771,0-2.647
		c0.913-0.347,1.704-0.543,2.504,0.146C61.902,193.151,59.312,191.884,58.926,193.12z"/>
	<path fill-rule="evenodd" clip-rule="evenodd" fill="#FFFFFF" d="M124.832,191.185c-1.508,0.328-2.344-1.064-3.849-1.569
		c1.396-0.645,2.475-0.433,3.718-0.252C124.745,189.984,124.788,190.583,124.832,191.185z"/>
	<path fill-rule="evenodd" clip-rule="evenodd" fill="#FFFFFF" d="M121.811,202.49c-0.57-1.251-1.539-1.163-2.222-1.636
		c-0.264-0.638-0.204-1.2,0.414-1.757C121.421,199.497,122.439,200.179,121.811,202.49z"/>
	<path fill-rule="evenodd" clip-rule="evenodd" fill="#FFFFFF" d="M119.69,172.359c1.117,0.931-0.032,2.744,1.553,3.312
		c-0.429,0.589-0.932,0.665-1.546,0.322C119.108,174.807,119.647,173.591,119.69,172.359z"/>
	<path fill-rule="evenodd" clip-rule="evenodd" fill="#FFFFFF" d="M58.37,189.201c-0.409-0.459-0.811-0.909-1.218-1.366
		c0.083-0.954,0.75-0.543,1.202-0.646c0.449-0.102,0.458-1.237,1.182-0.728C60.154,187.985,58.86,188.362,58.37,189.201z"/>
	<path fill-rule="evenodd" clip-rule="evenodd" fill="#FFFFFF" d="M60.237,172.237c-0.606-0.483-0.65-1.05-0.409-1.693
		c0.772-0.576,1.561-0.48,2.468-0.015C61.831,171.513,61.243,172.206,60.237,172.237z"/>
	<path fill-rule="evenodd" clip-rule="evenodd" fill="#FFFFFF" d="M118.892,160.908c2.415,1.198,2.657,2.485,2.006,4.521
		C120.267,164.007,119.773,162.893,118.892,160.908z"/>
	<path fill-rule="evenodd" clip-rule="evenodd" fill="#FFFFFF" d="M52.612,146.213c1.028,0.56,1.815,0.987,2.703,1.469
		c-0.465,0.436-0.891,0.834-1.424,1.334C53.227,148.526,52.453,147.998,52.612,146.213z"/>
	<path fill-rule="evenodd" clip-rule="evenodd" fill="#FFFFFF" d="M123.015,133.179c0-0.941,0.003-1.883-0.001-2.824
		c-0.003-0.683,0.119-1.238,0.893-1.177c-0.055,0.935-0.032,1.836,0.813,2.401C124.271,132.284,123.888,133.055,123.015,133.179z"/>
</g>
</svg>
