<?xml version="1.0" encoding="utf-8"?>
<!-- Generator: Adobe Illustrator 16.0.0, SVG Export Plug-In . SVG Version: 6.00 Build 0)  -->
<!DOCTYPE svg PUBLIC "-//W3C//DTD SVG 1.1//EN" "http://www.w3.org/Graphics/SVG/1.1/DTD/svg11.dtd">
<svg version="1.1" id="Layer_1" xmlns="http://www.w3.org/2000/svg" xmlns:xlink="http://www.w3.org/1999/xlink" x="0px" y="0px"
	 width="376.666px" height="308.667px" viewBox="26.167 7.333 376.666 308.667"
	 enable-background="new 26.167 7.333 376.666 308.667" xml:space="preserve">
<ellipse cx="145" cy="21" rx="8.667" ry="13.667"/>
<ellipse cx="193" cy="21" rx="8.667" ry="13.667"/>
<ellipse cx="259" cy="21" rx="8.667" ry="13.667"/>
<ellipse cx="316" cy="21" rx="8.667" ry="13.667"/>
<ellipse cx="76" cy="70" rx="8.667" ry="13.667"/>
<ellipse cx="193" cy="70" rx="8.667" ry="13.667"/>
<ellipse cx="285" cy="70" rx="8.667" ry="13.667"/>
<ellipse cx="365" cy="70" rx="8.667" ry="13.667"/>
<ellipse cx="76" cy="116" rx="8.667" ry="13.667"/>
<ellipse cx="259" cy="116" rx="8.667" ry="13.667"/>
<ellipse cx="394" cy="116" rx="8.667" ry="13.667"/>
<ellipse cx="35" cy="166" rx="8.667" ry="13.667"/>
<ellipse cx="145" cy="166" rx="8.667" ry="13.667"/>
<ellipse cx="193" cy="166" rx="8.667" ry="13.667"/>
<ellipse cx="259" cy="166" rx="8.667" ry="13.667"/>
<ellipse cx="76" cy="216" rx="8.667" ry="13.667"/>
<ellipse cx="193" cy="216" rx="8.667" ry="13.667"/>
<ellipse cx="285" cy="216" rx="8.667" ry="13.667"/>
<ellipse cx="316" cy="216" rx="8.667" ry="13.667"/>
<ellipse cx="193" cy="264" rx="8.667" ry="13.667"/>
<ellipse cx="365" cy="264" rx="8.667" ry="13.667"/>
<ellipse cx="259" cy="302" rx="8.667" ry="13.667"/>
</svg>
