<?xml version="1.0" encoding="utf-8"?>
<!-- Generator: Adobe Illustrator 16.0.0, SVG Export Plug-In . SVG Version: 6.00 Build 0)  -->
<!DOCTYPE svg PUBLIC "-//W3C//DTD SVG 1.1//EN" "http://www.w3.org/Graphics/SVG/1.1/DTD/svg11.dtd">
<svg version="1.1" id="Layer_1" xmlns="http://www.w3.org/2000/svg" xmlns:xlink="http://www.w3.org/1999/xlink" x="0px" y="0px"
	 width="47.103px" height="12.822px" viewBox="0 7.522 47.103 12.822" enable-background="new 0 7.522 47.103 12.822"
	 xml:space="preserve">
<g>
	<path fill="none" stroke="#000000" stroke-width="1.5" stroke-miterlimit="10" d="M0,8.687c2.354,0,2.354,2,4.711,2
		c2.354,0,2.354-2,4.711-2c2.353,0,2.353,2,4.706,2c2.354,0,2.354-2,4.71-2c2.354,0,2.354,2,4.708,2s2.354-2,4.71-2s2.355,2,4.712,2
		c2.358,0,2.356-2,4.712-2s2.356,2,4.712,2s2.355-2,4.711-2"/>
</g>
<g>
	<path fill="none" stroke="#000000" stroke-width="1.5" stroke-miterlimit="10" d="M0,12.933c2.354,0,2.354,2,4.711,2
		c2.354,0,2.354-2,4.711-2c2.353,0,2.353,2,4.706,2c2.354,0,2.354-2,4.71-2c2.354,0,2.354,2,4.708,2s2.354-2,4.71-2s2.355,2,4.712,2
		c2.358,0,2.356-2,4.712-2s2.356,2,4.712,2s2.355-2,4.711-2"/>
</g>
<g>
	<path fill="none" stroke="#000000" stroke-width="1.5" stroke-miterlimit="10" d="M0,17.18c2.354,0,2.354,2,4.711,2
		c2.354,0,2.354-2,4.711-2c2.353,0,2.353,2,4.706,2c2.354,0,2.354-2,4.71-2c2.354,0,2.354,2,4.708,2s2.354-2,4.71-2s2.355,2,4.712,2
		c2.358,0,2.356-2,4.712-2s2.356,2,4.712,2s2.355-2,4.711-2"/>
</g>
</svg>
